<?xml version="1.0" encoding="utf-8"?>
<!DOCTYPE svg PUBLIC "-//W3C//DTD SVG 1.1//EN" "http://www.w3.org/Graphics/SVG/1.1/DTD/svg11.dtd">
<svg version="1.1" id="brandmark" xmlns="http://www.w3.org/2000/svg" xmlns:xlink="http://www.w3.org/1999/xlink" x="0px" y="0px" viewBox="10 272.575 1063.078 100.265"
	 enable-background="new 10 272.575 1063.078 100.265">
<g id="logo">
	<g id="letter">
		<polygon style="opacity:0.29;enable-background:new    ;" points="10,282.274 26.981,282.274 26.981,331.331 60.943,331.331 
			60.943,282.274 77.924,282.274 77.924,348.312 10,348.312 		"/>
		<polygon style="opacity:0.29;enable-background:new    ;" points="60.943,297.369 126.98,297.369 126.98,314.35 102.452,314.35 
			102.452,363.406 85.471,363.406 85.471,314.35 60.943,314.35 		"/>
		<polygon style="opacity:0.29;enable-background:new    ;" points="110,272.84 177.924,272.84 177.924,289.821 126.98,289.821 
			126.98,297.369 177.924,297.369 177.924,338.878 110,338.878 110,321.897 160.943,321.897 160.943,314.35 110,314.35 		"/>
		<path style="opacity:0.29;enable-background:new    ;" d="M160.943,321.897v50.942h50.943v-50.942H160.943z M194.905,355.859
			h-16.981v-16.981h16.981V355.859z"/>
		<path style="opacity:0.29;enable-background:new    ;" d="M194.905,272.84v66.038h16.98v-16.98h33.962v16.98h16.981V272.84
			H194.905z M245.848,304.916h-33.962v-15.094h33.962V304.916z"/>
	</g>
	<g id="line">
		<polygon style="fill:#FFFFFF;" points="70.377,340.765 17.547,340.765 17.547,282.274 19.434,282.274 19.434,338.878 
			68.49,338.878 68.49,282.274 70.377,282.274 		"/>
		<polygon style="fill:#FFFFFF;" points="94.905,363.406 93.019,363.406 93.019,306.803 60.943,306.803 60.943,304.916 
			126.98,304.916 126.98,306.803 94.905,306.803 		"/>
		<polygon style="fill:#FFFFFF;" points="170.377,331.331 110,331.331 110,329.444 168.49,329.444 168.49,306.803 117.546,306.803 
			117.546,280.387 177.924,280.387 177.924,282.274 119.434,282.274 119.434,304.916 170.377,304.916 		"/>
		<path style="fill:#FFFFFF;" d="M204.339,365.293H168.49v-35.849h35.849V365.293z M170.377,363.406h32.075v-32.075h-32.075V363.406
			z"/>
		<path style="fill:#FFFFFF;" d="M255.282,338.878h-1.887V314.35h-49.056v24.527h-1.887v-58.49h52.83V338.878L255.282,338.878z
			 M204.339,312.463h49.056v-30.188h-49.056V312.463z"/>
	</g>
</g>
<g id="endorsed_wordmark">
	<path id="The_University_of_Texas_at_Austin" d="M904.339,291.995c-0.379-0.189-0.404-0.277-0.404-0.988
		c0-1.272,0.101-2.3,0.128-2.711c0.037-0.271,0.095-0.397,0.209-0.397c0.149,0,0.178,0.094,0.178,0.274c0,0.229,0,0.604,0.081,0.946
		c0.386,1.891,2.09,2.637,3.83,2.637c2.493,0,3.724-1.799,3.724-3.43c0-1.767-0.746-2.784-2.983-4.599l-1.183-0.975
		c-2.73-2.231-3.354-3.829-3.354-5.548c0-2.748,2.058-4.618,5.374-4.618c0.991,0,1.743,0.093,2.389,0.256
		c0.499,0.084,0.73,0.123,0.922,0.123c0.2,0,0.247,0.059,0.247,0.18c0,0.123-0.1,0.978-0.1,2.721c0,0.408-0.058,0.583-0.172,0.583
		c-0.155,0-0.166-0.12-0.198-0.324c-0.043-0.293-0.195-1.007-0.356-1.289c-0.162-0.279-0.854-1.373-3.244-1.373
		c-1.771,0-3.154,1.126-3.154,2.988c0,1.468,0.702,2.338,3.123,4.324l0.729,0.545c3.065,2.405,3.796,3.973,3.796,6.025
		c0,1.055-0.427,3.013-2.209,4.257c-1.115,0.773-2.503,1.089-3.896,1.089C906.586,292.685,905.389,292.493,904.339,291.995
		 M881.731,290.879c-1.273-1.217-2.253-3.004-2.253-6.749v-3.762c0-4.005,0-4.724-0.057-5.536c-0.053-0.865-0.257-1.272-1.106-1.478
		c-0.215-0.027-0.66-0.066-0.888-0.066l-0.222-0.152c0-0.157,0.143-0.22,0.426-0.22c1.157,0,2.753,0.101,2.99,0.101
		c0.229,0,1.78-0.101,2.558-0.101c0.29,0,0.433,0.062,0.433,0.22l-0.199,0.152c-0.195,0-0.353,0.037-0.661,0.066
		c-0.698,0.1-0.896,0.583-0.964,1.478c-0.048,0.812-0.048,1.531-0.048,5.536v3.582c0,3.696,0.816,5.312,1.938,6.338
		c1.278,1.197,2.438,1.438,3.926,1.438c1.586,0,3.116-0.74,4.07-1.862c1.172-1.468,1.497-3.635,1.497-6.292v-3.202
		c0-4.005,0-4.724-0.065-5.537c-0.058-0.865-0.267-1.272-1.132-1.478c-0.181-0.027-0.626-0.067-0.859-0.067l-0.189-0.151
		c0-0.157,0.118-0.219,0.399-0.219c1.159,0,2.579,0.101,2.755,0.101c0.152,0,1.389-0.101,2.154-0.101
		c0.291,0,0.423,0.062,0.423,0.219l-0.204,0.151c-0.161,0-0.356,0-0.646,0.067c-0.692,0.151-0.917,0.583-0.965,1.478
		c-0.053,0.812-0.053,1.531-0.053,5.537v2.74c0,2.79-0.313,5.873-2.38,7.67c-1.872,1.673-3.827,1.905-5.336,1.905
		C886.207,292.685,883.595,292.584,881.731,290.879 M774.354,291.995c-0.361-0.189-0.404-0.277-0.404-0.988
		c0-1.272,0.12-2.3,0.138-2.711c0.016-0.271,0.075-0.397,0.209-0.397c0.135,0,0.176,0.094,0.176,0.274c0,0.229,0,0.604,0.076,0.946
		c0.393,1.891,2.097,2.637,3.826,2.637c2.512,0,3.724-1.799,3.724-3.43c0-1.767-0.754-2.784-2.981-4.599l-1.174-0.975
		c-2.736-2.231-3.363-3.829-3.363-5.548c0-2.748,2.058-4.618,5.358-4.618c0.993,0,1.75,0.093,2.392,0.256
		c0.508,0.084,0.712,0.123,0.939,0.123c0.183,0,0.247,0.059,0.247,0.18c0,0.123-0.104,0.978-0.104,2.721
		c0,0.408-0.047,0.583-0.186,0.583c-0.15,0-0.186-0.12-0.209-0.324c-0.027-0.293-0.179-1.007-0.331-1.289
		c-0.166-0.284-0.854-1.373-3.244-1.373c-1.768,0-3.197,1.126-3.197,2.988c0,1.468,0.736,2.338,3.179,4.324l0.708,0.545
		c3.065,2.405,3.801,3.973,3.801,6.025c0,1.055-0.418,3.013-2.219,4.257c-1.111,0.773-2.508,1.089-3.905,1.089
		C776.591,292.685,775.409,292.493,774.354,291.995 M631.39,282.616c0-4.156,3.058-10.035,10.188-10.035
		c5.823,0,10.188,3.606,10.188,9.616c0,5.741-4.109,10.486-10.342,10.486C634.335,292.685,631.39,287.229,631.39,282.616
		 M633.836,281.869c0,6.006,3.621,9.852,8.301,9.852c2.309,0,7.142-1.359,7.142-8.824c0-6.152-3.776-9.453-7.877-9.453
		C637.071,273.442,633.836,276.269,633.836,281.869 M545.165,291.995c-0.353-0.189-0.385-0.277-0.385-0.988
		c0-1.272,0.09-2.3,0.138-2.711c0.005-0.271,0.053-0.397,0.176-0.397c0.19,0,0.199,0.094,0.199,0.274c0,0.229,0,0.604,0.101,0.946
		c0.36,1.891,2.081,2.637,3.814,2.637c2.475,0,3.702-1.799,3.702-3.43c0-1.767-0.766-2.784-2.97-4.599l-1.164-0.975
		c-2.742-2.231-3.379-3.829-3.379-5.548c0-2.748,2.076-4.618,5.363-4.618c1.019,0,1.759,0.093,2.399,0.256
		c0.514,0.084,0.699,0.123,0.913,0.123c0.199,0,0.266,0.059,0.266,0.18c0,0.123-0.104,0.978-0.104,2.721
		c0,0.408-0.062,0.583-0.193,0.583c-0.139,0-0.186-0.12-0.22-0.324c-0.01-0.293-0.147-1.007-0.328-1.289
		c-0.123-0.284-0.846-1.373-3.23-1.373c-1.796,0-3.188,1.126-3.188,2.988c0,1.468,0.732,2.338,3.15,4.324l0.744,0.545
		c3.047,2.405,3.773,3.973,3.773,6.025c0,1.055-0.404,3.013-2.19,4.257c-1.111,0.773-2.509,1.089-3.896,1.089
		C547.412,292.685,546.209,292.493,545.165,291.995 M486.125,291.096l-6.361-15.731c-0.564-1.431-0.932-1.715-1.844-1.987
		c-0.395-0.095-0.837-0.095-1.002-0.095l-0.195-0.172c0-0.158,0.252-0.2,0.672-0.2c1.234,0,2.732,0.1,3.041,0.1
		c0.257,0,1.427-0.1,2.398-0.1c0.477,0,0.703,0.063,0.703,0.2c0,0.115-0.072,0.172-0.266,0.172c-0.272,0-0.761,0.038-0.988,0.127
		c-0.256,0.138-0.328,0.324-0.328,0.52c0,0.324,0.313,1.116,0.713,2.122l4.971,13.143c1.495-3.454,4.949-12.423,5.545-14.268
		c0.122-0.352,0.22-0.727,0.22-0.969c0-0.186-0.075-0.461-0.35-0.583c-0.282-0.096-0.69-0.096-0.985-0.096l-0.277-0.151
		c0-0.156,0.173-0.22,0.577-0.22c1.037,0,2.229,0.1,2.547,0.1c0.156,0,1.283-0.1,2.02-0.1c0.276,0,0.439,0.063,0.439,0.2
		c0,0.115-0.114,0.172-0.318,0.172c-0.179,0-0.738,0-1.229,0.315c-0.346,0.214-0.724,0.66-1.416,2.403
		c-0.295,0.724-1.587,3.796-2.922,6.95c-1.558,3.749-2.74,6.538-3.324,7.788c-0.729,1.534-0.838,1.938-1.107,1.938
		C486.752,292.685,486.619,292.312,486.125,291.096 M414.838,290.879c-1.283-1.217-2.271-3.004-2.271-6.749v-3.762
		c0-4.005,0-4.724-0.058-5.536c-0.033-0.865-0.252-1.272-1.11-1.478c-0.195-0.027-0.656-0.066-0.89-0.066l-0.205-0.152
		c0-0.157,0.148-0.22,0.435-0.22c1.164,0,2.746,0.101,2.981,0.101c0.238,0,1.777-0.101,2.558-0.101c0.276,0,0.425,0.062,0.425,0.22
		l-0.227,0.152c-0.17,0-0.327,0.037-0.635,0.066c-0.709,0.1-0.893,0.583-0.951,1.478c-0.053,0.812-0.053,1.531-0.053,5.536v3.582
		c0,3.696,0.811,5.312,1.926,6.338c1.291,1.197,2.459,1.438,3.927,1.438c1.571,0,3.114-0.74,4.053-1.862
		c1.212-1.468,1.53-3.635,1.53-6.292v-3.202c0-4.005,0-4.724-0.067-5.537c-0.062-0.865-0.251-1.272-1.127-1.478
		c-0.209-0.027-0.636-0.067-0.887-0.067l-0.195-0.151c0-0.157,0.104-0.219,0.413-0.219c1.16,0,2.6,0.101,2.742,0.101
		c0.181,0,1.4-0.101,2.193-0.101c0.268,0,0.419,0.062,0.419,0.219l-0.214,0.151c-0.18,0-0.347,0-0.656,0.067
		c-0.708,0.151-0.906,0.583-0.964,1.478c-0.038,0.812-0.038,1.531-0.038,5.537v2.74c0,2.79-0.317,5.873-2.381,7.67
		c-1.865,1.673-3.819,1.905-5.345,1.905C419.289,292.685,416.668,292.584,414.838,290.879 M974.461,290.879
		c-0.277-0.263-4.027-4.035-6.767-6.958c-3.018-3.217-5.943-6.457-6.775-7.369l0.342,12.276c0.048,2.105,0.318,2.771,1.013,2.974
		c0.491,0.128,1.073,0.158,1.308,0.158l0.181,0.178c0,0.143-0.146,0.177-0.439,0.177c-1.504,0-2.547-0.054-2.772-0.054
		c-0.221,0-1.307,0.054-2.476,0.054c-0.262,0-0.433-0.01-0.433-0.177l0.223-0.178c0.214,0,0.686-0.027,1.068-0.158
		c0.646-0.177,0.79-0.906,0.79-3.239l0.014-14.739c0-0.974,0.07-1.248,0.28-1.248c0.209,0,0.638,0.556,0.898,0.803
		c0.39,0.438,4.257,4.566,8.253,8.814c2.585,2.716,5.393,5.85,6.212,6.679l-0.282-13.019c-0.038-1.662-0.223-2.247-1.035-2.442
		c-0.443-0.095-1.036-0.127-1.257-0.127c-0.172,0-0.211-0.075-0.211-0.172c0-0.158,0.211-0.2,0.538-0.2c1.148,0,2.395,0.1,2.669,0.1
		c0.292,0,1.164-0.1,2.234-0.1c0.286,0,0.466,0.042,0.466,0.2c0,0.1-0.12,0.172-0.296,0.172c-0.125,0-0.308,0-0.616,0.067
		c-0.843,0.203-0.955,0.761-0.955,2.284l-0.08,15.049c0,1.683-0.036,1.805-0.226,1.805
		C976.125,292.493,975.811,292.222,974.461,290.879 M452.947,290.879c-0.276-0.263-4.001-4.035-6.767-6.958
		c-2.979-3.217-5.899-6.457-6.731-7.369l0.352,12.276c0.039,2.105,0.295,2.771,0.994,2.974c0.502,0.128,1.053,0.158,1.29,0.158
		l0.21,0.178c0,0.143-0.163,0.177-0.49,0.177c-1.446,0-2.473-0.054-2.725-0.054c-0.242,0-1.326,0.054-2.48,0.054
		c-0.268,0-0.44-0.01-0.44-0.177l0.242-0.178c0.198,0,0.645-0.027,1.048-0.158c0.649-0.177,0.793-0.906,0.793-3.239l0.005-14.739
		c-0.005-0.969,0.096-1.242,0.3-1.242c0.199,0,0.641,0.556,0.901,0.802c0.39,0.438,4.263,4.568,8.229,8.814
		c2.564,2.716,5.379,5.85,6.197,6.679l-0.263-13.017c-0.032-1.663-0.22-2.249-1.001-2.444c-0.484-0.094-1.068-0.125-1.293-0.125
		c-0.181,0-0.195-0.076-0.195-0.174c0-0.157,0.195-0.198,0.51-0.198c1.158,0,2.404,0.099,2.713,0.099
		c0.271,0,1.131-0.099,2.195-0.099c0.279,0,0.459,0.041,0.459,0.198c0,0.101-0.084,0.174-0.295,0.174c-0.121,0-0.304,0-0.611,0.066
		c-0.854,0.204-0.965,0.761-0.965,2.285l-0.037,15.048c0,1.682-0.062,1.804-0.23,1.804
		C454.635,292.493,454.346,292.222,452.947,290.879 M714.042,292.265c-0.085,0-0.503,0.02-1.06,0.02
		c-0.522,0.025-1.121,0.032-1.496,0.032c-0.291,0-0.418-0.032-0.418-0.176l0.214-0.179c0.229,0,0.541-0.057,0.765-0.104
		c0.499-0.089,0.643-0.646,0.746-1.411c0.128-1.083,0.128-3.103,0.128-5.563v-4.512c0-4.005,0-4.723-0.038-5.536
		c-0.071-0.864-0.266-1.273-1.131-1.478c-0.199-0.028-0.635-0.066-0.878-0.066l-0.204-0.159c0-0.156,0.128-0.218,0.408-0.218
		c1.191,0,2.808,0.101,2.964,0.101c0.138,0,5.308,0,5.907-0.038c0.483-0.021,0.901-0.089,1.116-0.125l0.338-0.12l0.127,0.229
		c0,0.178-0.133,0.481-0.223,1.201c-0.01,0.276-0.058,1.4-0.108,1.697l-0.195,0.279c-0.156,0-0.204-0.128-0.204-0.313
		c0-0.19-0.028-0.633-0.138-0.938c-0.191-0.398-0.466-0.724-1.882-0.886c-0.423-0.038-3.25-0.066-3.536-0.066
		c-0.1,0-0.144,0.066-0.144,0.261v7.05c0,0.21,0.024,0.278,0.144,0.278c0.339,0,3.536,0,4.129-0.047
		c0.628-0.059,0.983-0.116,1.217-0.348c0.182-0.235,0.28-0.352,0.391-0.352l0.134,0.205c0,0.146-0.134,0.607-0.229,1.431
		c-0.038,0.519-0.091,1.474-0.091,1.635c0,0.231,0,0.499-0.176,0.499l-0.187-0.237c0-0.271,0-0.498-0.085-0.837
		c-0.108-0.371-0.348-0.827-1.363-0.917c-0.708-0.047-3.265-0.126-3.688-0.126l-0.195,0.184v2.267c0,0.874-0.042,3.868,0,4.39
		c0.082,1.771,0.461,2.104,3.003,2.104c0.681,0,1.829,0,2.485-0.278c0.68-0.277,1.012-0.812,1.183-1.841
		c0.049-0.277,0.101-0.423,0.229-0.423c0.156,0,0.156,0.237,0.156,0.423c0,0.188-0.219,1.95-0.337,2.485
		c-0.183,0.646-0.408,0.646-1.416,0.646C716.494,292.393,714.76,292.265,714.042,292.265 M505.829,292.265
		c-0.048,0-0.504,0.02-1.05,0.02c-0.523,0.025-1.089,0.032-1.501,0.032c-0.284,0-0.409-0.032-0.409-0.176l0.238-0.179
		c0.197,0,0.508-0.057,0.739-0.104c0.522-0.089,0.643-0.646,0.774-1.411c0.1-1.083,0.1-3.103,0.1-5.563v-4.512
		c0-4.005,0-4.723-0.037-5.536c-0.053-0.864-0.267-1.273-1.12-1.478c-0.2-0.028-0.646-0.066-0.881-0.066l-0.199-0.152
		c0-0.158,0.129-0.221,0.403-0.221c1.185,0,2.822,0.101,2.945,0.101c0.163,0,5.317,0,5.945-0.038c0.466-0.02,0.874-0.089,1.11-0.125
		l0.348-0.118l0.1,0.228c0,0.178-0.119,0.481-0.204,1.201c-0.023,0.276-0.075,1.4-0.114,1.697l-0.198,0.279
		c-0.167,0-0.22-0.127-0.22-0.313c0-0.189-0.01-0.633-0.143-0.938c-0.181-0.399-0.447-0.724-1.834-0.886
		c-0.442-0.037-3.265-0.066-3.55-0.066c-0.109,0-0.156,0.066-0.156,0.262v7.049c0,0.209,0.028,0.277,0.156,0.277
		c0.347,0,3.529,0,4.12-0.048c0.622-0.058,0.991-0.115,1.211-0.348c0.189-0.236,0.305-0.352,0.398-0.352l0.114,0.204
		c0,0.146-0.114,0.608-0.2,1.431c-0.062,0.519-0.112,1.474-0.112,1.636c0,0.231,0,0.497-0.177,0.497l-0.189-0.241
		c0-0.271,0-0.498-0.119-0.836c-0.076-0.371-0.313-0.828-1.32-0.918c-0.698-0.048-3.278-0.126-3.706-0.126l-0.186,0.185v2.266
		c0,0.874-0.038,3.869,0,4.39c0.07,1.771,0.456,2.104,2.987,2.104c0.699,0,1.829,0,2.495-0.279c0.676-0.276,0.983-0.812,1.184-1.84
		c0.043-0.277,0.076-0.423,0.232-0.423s0.156,0.237,0.156,0.423c0,0.188-0.219,1.95-0.347,2.486
		c-0.187,0.646-0.386,0.646-1.397,0.646C508.318,292.393,506.57,292.265,505.829,292.265 M383.938,292.265
		c-0.062,0-0.493,0.02-1.04,0.02c-0.504,0.025-1.106,0.032-1.491,0.032c-0.285,0-0.434-0.032-0.434-0.176l0.229-0.179
		c0.247,0,0.541-0.057,0.77-0.104c0.52-0.089,0.65-0.646,0.761-1.411c0.138-1.083,0.138-3.103,0.138-5.563v-4.512
		c0-4.005,0-4.723-0.08-5.536c-0.036-0.864-0.242-1.273-1.097-1.478c-0.205-0.028-0.666-0.066-0.88-0.066l-0.205-0.152
		c0-0.158,0.129-0.221,0.415-0.221c1.17,0,2.809,0.101,2.921,0.101c0.177,0,5.336,0,5.942-0.038c0.48-0.02,0.895-0.089,1.131-0.125
		l0.344-0.118l0.108,0.228c0,0.178-0.134,0.481-0.219,1.201c-0.01,0.276-0.081,1.4-0.133,1.697l-0.176,0.279
		c-0.162,0-0.21-0.127-0.21-0.313c0-0.189-0.028-0.633-0.151-0.938c-0.19-0.399-0.447-0.724-1.858-0.886
		c-0.418-0.037-3.249-0.066-3.539-0.066c-0.091,0-0.138,0.066-0.138,0.262v7.049c0,0.209,0.015,0.277,0.138,0.277
		c0.353,0,3.535,0,4.118-0.048c0.634-0.058,0.986-0.115,1.231-0.348c0.176-0.236,0.284-0.352,0.395-0.352l0.126,0.204
		c0,0.146-0.126,0.608-0.229,1.431c-0.043,0.519-0.094,1.474-0.094,1.636c0,0.231,0,0.497-0.186,0.497l-0.187-0.241
		c0-0.271,0-0.498-0.101-0.836c-0.099-0.371-0.336-0.828-1.353-0.918c-0.693-0.048-3.27-0.126-3.688-0.126l-0.189,0.185v2.266
		c0,0.874-0.033,3.869,0,4.39c0.057,1.771,0.471,2.104,2.99,2.104c0.685,0,1.812,0,2.496-0.279c0.666-0.276,0.984-0.812,1.18-1.84
		c0.048-0.277,0.091-0.423,0.229-0.423c0.156,0,0.156,0.237,0.156,0.423c0,0.188-0.232,1.95-0.337,2.486
		c-0.18,0.646-0.39,0.646-1.4,0.646C386.43,292.393,384.702,292.265,383.938,292.265 M946.748,292.265
		c-0.123,0-1.765,0.052-2.532,0.052c-0.287,0-0.403-0.032-0.403-0.176l0.217-0.179c0.229,0,0.526-0.057,0.767-0.104
		c0.519-0.089,0.646-0.646,0.742-1.411c0.138-1.083,0.138-3.103,0.138-5.563v-4.512c0-4.005,0-4.723-0.053-5.536
		c-0.066-0.864-0.312-1.32-0.887-1.446c-0.279-0.059-0.638-0.096-0.812-0.096l-0.221-0.151c0-0.156,0.146-0.221,0.425-0.221
		c0.849,0,2.49,0.101,2.614,0.101c0.14,0,1.765-0.101,2.523-0.101c0.318,0,0.432,0.063,0.432,0.221l-0.195,0.151
		c-0.189,0-0.337,0.037-0.66,0.067c-0.692,0.152-0.897,0.583-0.955,1.477c-0.052,0.812-0.052,1.531-0.052,5.537v4.515
		c0,2.459,0,4.479,0.123,5.562c0.095,0.765,0.242,1.321,1.035,1.41c0.355,0.052,0.916,0.104,1.148,0.104l0.219,0.179
		c0,0.124-0.152,0.176-0.438,0.176C948.511,292.312,946.886,292.265,946.748,292.265 M928.693,292.265
		c-0.134,0-1.772,0.052-2.537,0.052c-0.3,0-0.432-0.032-0.432-0.176l0.204-0.179c0.243,0,0.549-0.057,0.796-0.104
		c0.514-0.089,0.636-0.646,0.754-1.411c0.101-1.083,0.101-3.103,0.101-5.563v-10.86l-3.815,0.047
		c-1.62,0.047-2.23,0.225-2.658,0.838c-0.267,0.437-0.348,0.618-0.434,0.786c-0.087,0.205-0.144,0.262-0.248,0.262l-0.127-0.224
		c0-0.267,0.516-2.471,0.545-2.68l0.269-0.476c0.178,0,0.45,0.256,1.153,0.293c0.74,0.09,1.719,0.144,2.055,0.144h9.701
		c0.834,0,1.449-0.1,1.857-0.144c0.381-0.074,0.604-0.136,0.713-0.136l0.138,0.312c0,0.771-0.095,2.553-0.095,2.842
		c0,0.232-0.076,0.295-0.186,0.295c-0.119,0-0.161-0.048-0.189-0.409l-0.043-0.269c-0.098-0.792-0.699-1.396-3.186-1.443
		l-3.258-0.048v10.856c0,2.46,0,4.482,0.128,5.563c0.089,0.765,0.232,1.32,1.033,1.411c0.331,0.052,0.917,0.104,1.144,0.104
		l0.204,0.177c0,0.125-0.127,0.178-0.428,0.178C930.475,292.312,928.841,292.265,928.693,292.265 M869.202,292.28
		c-0.513-0.021-0.779-0.021-0.779-0.179l0.167-0.195c0.18-0.052,0.318-0.28,0.18-0.694l-2.431-6.291l-0.237-0.166h-5.557
		l-0.262,0.204l-1.558,4.542c-0.211,0.646-0.372,1.273-0.372,1.709c0,0.536,0.569,0.75,1.003,0.75h0.257
		c0.186,0,0.262,0.058,0.262,0.179c0,0.141-0.152,0.176-0.38,0.176c-0.621,0-1.742-0.053-2.023-0.053
		c-0.305,0-1.721,0.053-2.932,0.053c-0.333,0-0.499-0.033-0.499-0.176l0.232-0.179c0.176,0,0.532-0.025,0.746-0.057
		c1.191-0.138,1.706-1.126,2.182-2.408l5.854-15.92c0.344-0.845,0.442-0.996,0.584-0.996c0.178,0,0.264,0.113,0.583,0.926
		c0.387,0.979,4.457,11.569,6.039,15.475c0.917,2.275,1.679,2.67,2.233,2.823c0.378,0.126,0.77,0.156,1.021,0.156l0.285,0.179
		c0,0.14-0.257,0.176-0.537,0.176C872.865,292.312,870.984,292.312,869.202,292.28 M863.012,276.735l-2.254,6.92l0.051,0.168h4.951
		l0.113-0.168l-2.477-6.92c-0.063-0.19-0.117-0.29-0.178-0.29C863.164,276.444,863.088,276.543,863.012,276.735 M830.433,292.265
		c-0.118,0-1.743,0.052-2.531,0.052c-0.271,0-0.392-0.032-0.392-0.176l0.199-0.179c0.229,0,0.538-0.057,0.752-0.104
		c0.551-0.089,0.655-0.646,0.788-1.411c0.104-1.083,0.104-3.103,0.104-5.563v-10.86l-3.824,0.047
		c-1.603,0.047-2.225,0.225-2.666,0.838c-0.262,0.437-0.332,0.618-0.423,0.786c-0.081,0.205-0.147,0.262-0.252,0.262l-0.121-0.224
		c0-0.267,0.512-2.471,0.56-2.68l0.229-0.476c0.189,0,0.471,0.256,1.142,0.293c0.794,0.09,1.753,0.144,2.066,0.144h9.717
		c0.837,0,1.436-0.1,1.849-0.144c0.385-0.074,0.621-0.136,0.722-0.136l0.125,0.312c0,0.771-0.086,2.553-0.086,2.842
		c0,0.232-0.057,0.295-0.182,0.295c-0.113,0-0.185-0.048-0.194-0.409l-0.024-0.269c-0.109-0.792-0.708-1.396-3.182-1.443
		l-3.264-0.048v10.856c0,2.46,0,4.482,0.123,5.563c0.075,0.765,0.233,1.32,0.998,1.411c0.37,0.052,0.942,0.104,1.192,0.104
		l0.198,0.177c0,0.125-0.138,0.178-0.432,0.178C832.195,292.312,830.57,292.265,830.433,292.265 M816.038,292.28
		c-0.499-0.021-0.774-0.021-0.774-0.179l0.193-0.195c0.126-0.052,0.282-0.28,0.126-0.694l-2.39-6.291l-0.258-0.166h-5.55
		l-0.29,0.204l-1.543,4.542c-0.224,0.646-0.366,1.273-0.366,1.709c0,0.536,0.557,0.75,0.966,0.75h0.279
		c0.199,0,0.262,0.058,0.262,0.179c0,0.141-0.156,0.176-0.396,0.176c-0.594,0-1.72-0.053-1.995-0.053
		c-0.29,0-1.71,0.053-2.927,0.053c-0.337,0-0.494-0.033-0.494-0.176l0.237-0.179c0.162,0,0.521-0.025,0.761-0.057
		c1.154-0.138,1.682-1.126,2.147-2.408l5.891-15.92c0.312-0.845,0.423-0.996,0.58-0.996c0.15,0,0.247,0.113,0.574,0.926
		c0.381,0.979,4.438,11.569,6.028,15.475c0.931,2.275,1.673,2.67,2.221,2.823c0.39,0.126,0.784,0.156,1.025,0.156l0.274,0.179
		c0,0.14-0.234,0.176-0.516,0.176C819.713,292.312,817.817,292.312,816.038,292.28 M809.866,276.735l-2.282,6.92l0.076,0.168h4.957
		l0.094-0.168l-2.438-6.92c-0.064-0.19-0.147-0.29-0.218-0.29C809.999,276.444,809.933,276.543,809.866,276.735 M763.947,292.28
		c-0.476-0.021-0.774-0.021-0.774-0.179l0.175-0.195c0.177-0.052,0.314-0.28,0.177-0.694l-2.418-6.291l-0.229-0.166H755.3
		l-0.257,0.204l-1.554,4.542c-0.22,0.646-0.371,1.273-0.371,1.709c0,0.536,0.569,0.75,1,0.75h0.272c0.19,0,0.247,0.058,0.247,0.179
		c0,0.141-0.17,0.176-0.385,0.176c-0.608,0-1.739-0.053-2.033-0.053c-0.285,0-1.711,0.053-2.914,0.053
		c-0.33,0-0.523-0.033-0.523-0.176l0.263-0.179c0.174,0,0.53-0.025,0.741-0.057c1.189-0.138,1.719-1.126,2.175-2.408l5.882-15.92
		c0.313-0.84,0.433-0.991,0.562-0.991c0.166,0,0.266,0.113,0.588,0.926c0.356,0.98,4.433,11.569,6.017,15.476
		c0.95,2.275,1.698,2.669,2.247,2.821c0.386,0.128,0.774,0.156,1.034,0.156l0.28,0.179c0,0.143-0.263,0.176-0.54,0.176
		C767.642,292.312,765.745,292.312,763.947,292.28 M757.782,276.735l-2.275,6.92l0.085,0.168h4.928l0.101-0.168l-2.46-6.92
		c-0.053-0.19-0.125-0.29-0.182-0.29C757.935,276.444,757.863,276.543,757.782,276.735 M742.031,292.28
		c-0.655-0.062-0.793-0.072-0.793-0.219l0.178-0.209c0.114-0.053,0.347-0.295,0.114-0.694c-1.389-2.551-2.913-5.084-4.452-7.659
		l-4.053,6.785c-0.24,0.413-0.329,0.893-0.329,1.136c0,0.252,0.193,0.433,0.423,0.484l0.471,0.057l0.217,0.178
		c0,0.142-0.127,0.177-0.316,0.177c-0.596,0-2.247-0.053-2.473-0.053c-0.229,0-1.489,0.053-2.365,0.053
		c-0.199,0-0.247-0.053-0.247-0.177l0.194-0.178c0.22,0,0.608-0.027,0.989-0.104c0.787-0.23,1.282-0.785,2.137-2.091l4.705-7.352
		l-4.145-6.889c-0.607-0.998-1.143-1.74-2.028-2.067c-0.417-0.119-0.938-0.167-1.091-0.167l-0.229-0.172
		c0-0.136,0.109-0.2,0.461-0.2c0.709,0,2.789,0.101,3.021,0.101c0.226,0,1.546-0.101,2.443-0.101c0.341,0,0.424,0.063,0.424,0.2
		l-0.232,0.168c-0.157,0-0.484,0-0.703,0.066c-0.229,0.085-0.297,0.261-0.297,0.436c0,0.279,0.101,0.567,0.258,0.866
		c1.09,2.014,2.152,3.932,3.489,6.123c0.777-1.112,3.552-5.521,3.81-6.033c0.19-0.388,0.28-0.633,0.28-0.927
		c0-0.167-0.198-0.381-0.47-0.466c-0.247-0.068-0.607-0.068-0.766-0.068l-0.256-0.171c0-0.1,0.142-0.2,0.45-0.2
		c0.987,0,2.081,0.101,2.311,0.101c0.239,0,1.302-0.101,2.186-0.101c0.285,0,0.391,0.101,0.391,0.2c0,0.098-0.077,0.171-0.262,0.171
		c-0.178,0-0.569,0.038-0.869,0.126c-0.749,0.232-1.222,0.977-1.979,2.092l-4.192,6.186c0.505,0.816,4.951,8.247,5.479,8.966
		c0.418,0.545,0.774,0.907,1.547,1.141c0.361,0.101,0.742,0.157,0.899,0.157l0.198,0.177c0,0.125-0.125,0.178-0.36,0.178
		C744.606,292.312,743.386,292.303,742.031,292.28 M695.949,292.265c-0.119,0-1.749,0.052-2.547,0.052
		c-0.267,0-0.391-0.032-0.391-0.176l0.19-0.179c0.237,0,0.556-0.057,0.784-0.104c0.526-0.089,0.646-0.646,0.744-1.411
		c0.147-1.083,0.147-3.103,0.147-5.563v-10.86l-3.854,0.047c-1.609,0.047-2.231,0.225-2.627,0.838c-0.3,0.437-0.37,0.618-0.45,0.786
		c-0.062,0.205-0.167,0.262-0.263,0.262l-0.123-0.224c0-0.267,0.519-2.471,0.579-2.68l0.247-0.476c0.176,0,0.438,0.256,1.15,0.293
		c0.734,0.09,1.714,0.144,2.018,0.144h9.74c1.649,0,2.351-0.284,2.566-0.284l0.125,0.313c0,0.771-0.077,2.552-0.077,2.841
		c0,0.231-0.062,0.296-0.186,0.296c-0.143,0-0.194-0.049-0.2-0.409l-0.023-0.264c-0.095-0.792-0.698-1.396-3.174-1.443l-3.255-0.048
		v10.856c0,2.46,0,4.482,0.091,5.563c0.083,0.765,0.229,1.32,1.029,1.411c0.361,0.052,0.918,0.104,1.15,0.104l0.223,0.177
		c0,0.125-0.122,0.178-0.402,0.178C697.707,292.312,696.097,292.265,695.949,292.265 M661.854,292.265
		c-0.146,0-1.776,0.052-2.526,0.052c-0.294,0-0.428-0.032-0.428-0.176l0.197-0.179c0.237,0,0.542-0.057,0.794-0.104
		c0.504-0.089,0.638-0.646,0.736-1.411c0.133-1.083,0.133-3.103,0.133-5.563v-4.512c0-4.005,0-4.723-0.043-5.536
		c-0.057-0.864-0.252-1.273-1.116-1.478c-0.219-0.028-0.655-0.066-0.897-0.066l-0.189-0.152c0-0.158,0.118-0.221,0.408-0.221
		c1.154,0,2.784,0.101,2.932,0.101c0.522,0,5.772,0,6.371-0.038c0.49-0.02,0.898-0.02,1.127-0.104l0.37-0.137l0.157,0.229
		c0,0.178-0.128,0.48-0.214,1.201c-0.024,0.277-0.071,1.401-0.124,1.698l-0.189,0.279c-0.124,0-0.189-0.127-0.189-0.305
		c0-0.199-0.086-0.641-0.229-0.964c-0.161-0.341-0.76-0.797-1.775-0.844l-3.969-0.058c-0.185,0-0.23,0.058-0.23,0.271v7.078
		l0.156,0.237l3.336-0.028c0.432,0,0.802,0,1.169-0.037c0.611-0.027,0.949-0.125,1.178-0.445l0.29-0.267l0.152,0.204
		c0,0.146-0.152,0.608-0.221,1.43c-0.057,0.519-0.123,1.535-0.123,1.716c0,0.236,0,0.492-0.172,0.492l-0.181-0.215
		c-0.033-0.277-0.057-0.623-0.161-0.926c-0.123-0.371-0.522-0.844-1.35-0.917c-0.646-0.095-3.448-0.095-3.914-0.095
		c-0.114,0-0.156,0.057-0.156,0.242v2.17c0,2.46,0,4.481,0.1,5.563c0.101,0.766,0.256,1.321,1.036,1.41
		c0.353,0.052,0.927,0.105,1.169,0.105l0.196,0.177c0,0.124-0.111,0.176-0.396,0.176
		C663.617,292.312,661.979,292.265,661.854,292.265 M605.932,292.265c-0.128,0-1.771,0.052-2.542,0.052
		c-0.288,0-0.402-0.032-0.402-0.176l0.198-0.179c0.229,0,0.532-0.057,0.785-0.104c0.513-0.089,0.751-0.646,0.789-1.411
		c0.088-1.083,0.088-2.152,0.088-2.551v-2.229c0-1.394-0.271-1.949-0.603-2.699c-0.182-0.408-3.649-6.028-4.566-7.368
		c-0.655-0.945-1.292-1.597-1.771-1.909c-0.38-0.252-0.881-0.398-1.104-0.398l-0.265-0.173c0-0.1,0.112-0.2,0.34-0.2
		c0.504,0,2.447,0.101,2.564,0.101c0.194,0,1.175-0.101,2.177-0.101c0.285,0,0.347,0.101,0.347,0.2s-0.171,0.115-0.384,0.22
		c-0.225,0.101-0.362,0.271-0.362,0.456c0,0.323,0.139,0.646,0.362,1.021c0.428,0.75,4.289,7.349,4.755,8.082
		c0.484-1.07,3.773-6.709,4.305-7.525c0.319-0.537,0.441-0.975,0.441-1.298c0-0.379-0.123-0.649-0.408-0.732
		c-0.236-0.075-0.395-0.119-0.395-0.246c0-0.109,0.156-0.172,0.419-0.172c0.655,0,1.486,0.1,1.695,0.1c0.164,0,2.031-0.1,2.515-0.1
		c0.199,0,0.341,0.062,0.341,0.172c0,0.125-0.142,0.199-0.341,0.199c-0.276,0-0.767,0.097-1.19,0.361
		c-0.51,0.312-0.79,0.613-1.365,1.289c-0.869,1.043-4.454,7.073-4.938,8.172c-0.389,0.917-0.389,1.715-0.389,2.559v2.225
		c0,0.398,0,1.473,0.062,2.552c0.053,0.768,0.285,1.322,1.069,1.41c0.377,0.052,0.932,0.104,1.174,0.104l0.199,0.179
		c0,0.124-0.134,0.176-0.43,0.176C607.691,292.312,606.061,292.265,605.932,292.265 M584.424,292.265
		c-0.133,0-1.777,0.052-2.537,0.052c-0.285,0-0.41-0.032-0.41-0.176l0.204-0.179c0.225,0,0.559-0.057,0.771-0.104
		c0.521-0.089,0.659-0.646,0.754-1.411c0.153-1.083,0.153-3.103,0.153-5.563v-10.86l-3.859,0.047
		c-1.615,0.047-2.229,0.225-2.626,0.838c-0.311,0.437-0.38,0.618-0.462,0.786c-0.061,0.2-0.152,0.258-0.252,0.258l-0.137-0.225
		c0-0.269,0.522-2.472,0.58-2.681l0.271-0.47c0.171,0,0.436,0.256,1.116,0.293c0.74,0.09,1.72,0.144,2.043,0.144h9.735
		c0.826,0,1.426-0.1,1.824-0.144c0.398-0.074,0.627-0.136,0.708-0.136l0.146,0.312c0,0.771-0.075,2.553-0.075,2.842
		c0,0.23-0.071,0.295-0.181,0.295c-0.119,0-0.186-0.048-0.2-0.409l-0.032-0.269c-0.104-0.792-0.687-1.396-3.184-1.443l-3.277-0.048
		v10.856c0,2.46,0,4.482,0.144,5.563c0.07,0.765,0.235,1.32,1.025,1.411c0.367,0.052,0.917,0.104,1.154,0.104l0.201,0.177
		c0,0.125-0.121,0.178-0.415,0.178C586.178,292.312,584.558,292.265,584.424,292.265 M566.181,292.265
		c-0.125,0-1.768,0.052-2.532,0.052c-0.3,0-0.42-0.032-0.42-0.176l0.209-0.179c0.233,0,0.548-0.057,0.78-0.104
		c0.522-0.089,0.651-0.646,0.756-1.411c0.127-1.083,0.127-3.103,0.127-5.563v-4.512c0-4.005,0-4.723-0.072-5.536
		c-0.031-0.864-0.288-1.32-0.85-1.446c-0.311-0.059-0.649-0.096-0.827-0.096l-0.203-0.156c0-0.158,0.143-0.22,0.417-0.22
		c0.846,0,2.483,0.101,2.613,0.101c0.122,0,1.764-0.101,2.521-0.101c0.306,0,0.418,0.062,0.418,0.22l-0.188,0.151
		c-0.185,0-0.323,0.037-0.651,0.066c-0.691,0.151-0.905,0.583-0.974,1.478c-0.049,0.812-0.049,1.531-0.049,5.537v4.513
		c0,2.459,0,4.481,0.126,5.562c0.09,0.766,0.256,1.321,1.031,1.412c0.332,0.052,0.917,0.104,1.169,0.104l0.194,0.179
		c0,0.124-0.138,0.176-0.418,0.176C567.938,292.312,566.301,292.265,566.181,292.265 M538.927,292.312
		c-1.459,0-2.108-0.101-2.799-0.461c-1.103-0.6-2.005-1.867-3.481-3.802c-1.084-1.382-2.307-3.136-2.843-3.775l-0.318-0.147
		l-3.192-0.084l-0.185,0.231v0.604c0,2.46,0,4.481,0.113,5.562c0.096,0.765,0.224,1.321,1.021,1.411
		c0.365,0.052,0.922,0.104,1.169,0.104l0.214,0.177c0,0.125-0.138,0.178-0.428,0.178c-1.432,0-3.064-0.053-3.185-0.053
		c-0.02,0-1.677,0.053-2.438,0.053c-0.266,0-0.413-0.033-0.413-0.178l0.199-0.177c0.252,0,0.542-0.057,0.784-0.104
		c0.513-0.09,0.642-0.646,0.735-1.411c0.152-1.083,0.152-3.104,0.152-5.562v-4.514c0-4.006,0-4.724-0.066-5.536
		c-0.038-0.865-0.247-1.273-1.106-1.478c-0.199-0.027-0.638-0.067-0.89-0.067l-0.198-0.152c0-0.156,0.128-0.218,0.413-0.218
		c1.153,0,2.808,0.098,2.932,0.098c0.295,0,2.257-0.098,3.046-0.098c1.634,0,3.388,0.171,4.761,1.149
		c0.643,0.456,1.781,1.704,1.781,3.469c0,1.886-0.798,3.813-3.126,5.938c2.109,2.689,3.873,4.962,5.379,6.563
		c1.394,1.478,2.49,1.763,3.15,1.834c0.514,0.09,0.87,0.09,1.031,0.09l0.216,0.177c0,0.144-0.148,0.178-0.601,0.178h-1.828v0.004
		h-0.003v-0.002H538.927z M526.321,273.903l-0.209,0.304v8.41l0.186,0.278c0.394,0.243,1.569,0.41,2.7,0.41
		c0.634,0,1.375-0.067,1.977-0.468c0.896-0.632,1.555-2.032,1.555-3.961c0-3.192-1.691-5.132-4.48-5.132
		C527.267,273.747,526.597,273.82,526.321,273.903 M468.194,292.265c-0.147,0-1.772,0.052-2.532,0.052
		c-0.305,0-0.42-0.032-0.42-0.176l0.186-0.179c0.257,0,0.57-0.057,0.809-0.104c0.499-0.089,0.642-0.646,0.728-1.411
		c0.138-1.083,0.138-3.103,0.138-5.563v-4.512c0-4.005,0-4.723-0.037-5.536c-0.066-0.864-0.328-1.32-0.88-1.446
		c-0.295-0.059-0.622-0.096-0.826-0.096l-0.209-0.151c0-0.156,0.156-0.221,0.433-0.221c0.85,0,2.47,0.101,2.617,0.101
		c0.131,0,1.762-0.101,2.521-0.101c0.312,0,0.424,0.063,0.424,0.221l-0.188,0.151c-0.19,0-0.348,0.037-0.651,0.067
		c-0.708,0.152-0.894,0.583-0.983,1.477c-0.049,0.812-0.049,1.531-0.049,5.537v4.515c0,2.459,0,4.479,0.139,5.562
		c0.074,0.765,0.246,1.321,1.024,1.41c0.368,0.052,0.925,0.104,1.171,0.104l0.199,0.179c0,0.124-0.138,0.176-0.445,0.176
		C469.956,292.312,468.331,292.265,468.194,292.265 M369.037,292.265c-0.128,0-1.763,0.052-2.532,0.052
		c-0.309,0-0.409-0.032-0.409-0.176l0.193-0.179c0.226,0,0.551-0.057,0.79-0.104c0.513-0.095,0.648-0.651,0.735-1.416
		c0.146-1.083,0.146-3.104,0.146-5.563v-2.685l-0.156-0.167h-10.989l-0.173,0.167v2.68c0,2.46,0,4.482,0.144,5.563
		c0.08,0.77,0.225,1.326,1.012,1.416c0.367,0.052,0.938,0.104,1.159,0.104l0.209,0.179c0,0.123-0.118,0.176-0.428,0.176
		c-1.416,0-3.055-0.053-3.188-0.053s-1.758,0.053-2.514,0.053c-0.285,0-0.428-0.033-0.428-0.176l0.197-0.179
		c0.237,0,0.552-0.057,0.794-0.104c0.498-0.09,0.655-0.646,0.745-1.411c0.124-1.083,0.124-3.107,0.124-5.563v-4.513
		c0-4.005,0-4.724-0.038-5.537c-0.046-0.865-0.274-1.272-1.121-1.477c-0.214-0.027-0.646-0.066-0.875-0.066l-0.224-0.153
		c0-0.157,0.138-0.219,0.418-0.219c1.165,0,2.785,0.101,2.918,0.101s1.771-0.101,2.556-0.101c0.301,0,0.409,0.062,0.409,0.219
		l-0.204,0.153c-0.181,0-0.317,0.037-0.646,0.066c-0.717,0.15-0.902,0.583-0.955,1.477c-0.066,0.812-0.066,1.532-0.066,5.537v0.527
		l0.171,0.146h10.99l0.158-0.146v-0.527c0-4.005,0-4.724-0.054-5.537c-0.058-0.865-0.276-1.272-1.11-1.477
		c-0.229-0.027-0.67-0.066-0.893-0.066l-0.209-0.153c0-0.157,0.131-0.219,0.418-0.219c1.164,0,2.793,0.101,2.922,0.101
		c0.146,0,1.776-0.101,2.532-0.101c0.304,0,0.423,0.062,0.423,0.219l-0.199,0.153c-0.195,0-0.338,0.037-0.66,0.066
		c-0.693,0.15-0.895,0.583-0.951,1.477c-0.061,0.812-0.061,1.532-0.061,5.537v4.513c0,2.46,0,4.482,0.133,5.563
		c0.093,0.765,0.227,1.321,1.031,1.411c0.354,0.047,0.93,0.104,1.147,0.104l0.189,0.179c0,0.123-0.109,0.176-0.404,0.176
		C370.81,292.312,369.178,292.265,369.037,292.265 M337.513,292.265c-0.151,0-1.771,0.052-2.552,0.052
		c-0.289,0-0.398-0.032-0.398-0.176l0.193-0.181c0.242,0,0.541-0.057,0.785-0.104c0.518-0.09,0.641-0.646,0.755-1.412
		c0.119-1.083,0.119-3.104,0.119-5.562v-10.856l-3.839,0.047c-1.615,0.047-2.225,0.225-2.643,0.838
		c-0.278,0.436-0.36,0.618-0.431,0.786c-0.072,0.2-0.152,0.257-0.258,0.257l-0.133-0.224c0-0.269,0.509-2.472,0.561-2.681
		l0.269-0.47c0.193,0,0.436,0.256,1.131,0.293c0.755,0.091,1.748,0.144,2.053,0.144h9.721c1.658,0,2.367-0.284,2.554-0.284
		l0.137,0.312c0,0.771-0.08,2.553-0.08,2.842c0,0.23-0.075,0.295-0.172,0.295c-0.123,0-0.18-0.049-0.213-0.409l-0.025-0.262
		c-0.104-0.792-0.688-1.396-3.192-1.444l-3.265-0.048v10.856c0,2.46,0,4.482,0.133,5.563c0.082,0.765,0.242,1.321,1.019,1.411
		c0.365,0.052,0.959,0.108,1.154,0.108l0.204,0.178c0,0.125-0.129,0.177-0.403,0.177
		C339.271,292.312,337.646,292.265,337.513,292.265"/>
	<path id="School_of_Architecture" style="fill:#808080;" d="M1073.078,355.622v-7.33h-19.537v-10.253h16.638v-7.331h-16.638v-9.893
		h19.537v-7.341h-27.761v42.142h27.761V355.622z M1028.562,326.383c0,3.257-2.365,5.564-5.98,5.564h-7.768v-11.136h7.768
		C1026.197,320.811,1028.562,323.124,1028.562,326.383 M1038.499,355.622l-9.403-18.169c4.082-1.479,7.692-5.145,7.692-11.066
		c0-7.054-5.09-12.909-13.674-12.909h-16.517v42.141h8.216v-16.811h5.925l8.236,16.812L1038.499,355.622L1038.499,355.622z
		 M997.516,341.183v-27.708h-8.157v27.419c0,4.845-2.898,7.75-7.347,7.75c-4.447,0-7.288-2.905-7.288-7.75v-27.419h-8.217v27.708
		c0,8.943,6.86,14.79,15.509,14.79C990.658,355.978,997.516,350.127,997.516,341.183 M960.108,320.811v-7.336h-30.246v7.336h11.004
		v34.806h8.229v-34.806H960.108z M925.239,342.666h-8.35c-0.831,3.373-2.96,5.979-7.105,5.979c-2.248,0-4.077-0.828-5.266-2.19
		c-1.598-1.772-2.076-3.788-2.076-11.906c0-8.109,0.479-10.125,2.076-11.896c1.191-1.363,3.021-2.202,5.266-2.202
		c4.146,0,6.274,2.617,7.105,5.988h8.35c-1.482-8.814-7.636-13.318-15.519-13.318c-4.617,0-8.404,1.663-11.364,4.618
		c-4.258,4.257-4.135,9.533-4.135,16.81c0,7.282-0.123,12.557,4.135,16.813c2.96,2.961,6.747,4.618,11.364,4.618
		C917.542,355.978,923.757,351.484,925.239,342.666 M888.231,355.622v-7.33h-19.537v-10.253h16.643v-7.331h-16.643v-9.893h19.537
		v-7.341h-27.757v42.142h27.757V355.622z M853.747,320.811v-7.336h-30.243v7.336h11.014v34.806h8.216v-34.806H853.747z
		 M816.836,313.475h-8.221v42.142h8.221V313.475z M799.128,355.622V313.48h-8.229v17.228h-14.28v-17.232h-8.217v42.142h8.217
		v-17.641h14.274v17.641h8.233L799.128,355.622L799.128,355.622z M761.44,342.666h-8.344c-0.832,3.373-2.965,5.979-7.107,5.979
		c-2.252,0-4.079-0.828-5.273-2.19c-1.592-1.772-2.072-3.788-2.072-11.906c0-8.109,0.482-10.125,2.072-11.896
		c1.192-1.363,3.021-2.202,5.273-2.202c4.144,0,6.275,2.617,7.107,5.988h8.344c-1.479-8.814-7.636-13.318-15.514-13.318
		c-4.618,0-8.41,1.663-11.364,4.618c-4.263,4.257-4.145,9.533-4.145,16.81c0,7.282-0.118,12.557,4.145,16.813
		c2.954,2.961,6.741,4.618,11.364,4.618C753.739,355.978,759.963,351.484,761.44,342.666 M715.302,326.383
		c0,3.257-2.371,5.564-5.986,5.564h-7.764v-11.136h7.764C712.931,320.811,715.302,323.124,715.302,326.383 M725.241,355.622
		l-9.402-18.169c4.08-1.479,7.688-5.145,7.688-11.066c0-7.054-5.084-12.909-13.67-12.909h-16.512v42.141h8.222v-16.811h5.921
		l8.232,16.812L725.241,355.622L725.241,355.622z M674.061,341.24h-10.48l5.325-15.335L674.061,341.24z M687.325,355.622
		l-15.397-42.141h-6.452l-15.331,42.141h8.587l2.542-7.455h14.984l2.483,7.455H687.325z M634.008,320.811v-7.336H606.25v42.142
		h8.225V338.51h16.636v-7.334h-16.636v-10.366h19.533V320.811L634.008,320.811z M589.779,334.547c0,8.119-0.474,10.071-2.071,11.849
		c-1.19,1.363-3.021,2.249-5.271,2.249c-2.253,0-4.146-0.886-5.336-2.249c-1.596-1.777-2.015-3.729-2.015-11.849
		c0-8.109,0.419-10.06,2.015-11.839c1.188-1.358,3.083-2.255,5.336-2.255c2.248,0,4.084,0.894,5.271,2.255
		C589.307,324.488,589.779,326.437,589.779,334.547 M598.002,334.547c0-7.276,0.057-12.558-4.2-16.809
		c-2.96-2.957-6.57-4.62-11.37-4.62s-8.467,1.663-11.426,4.62c-4.257,4.257-4.138,9.531-4.138,16.809
		c0,7.282-0.119,12.557,4.138,16.813c2.961,2.961,6.632,4.618,11.426,4.618s8.41-1.657,11.37-4.618
		C598.059,347.103,598.002,341.829,598.002,334.547 M548.011,355.622v-7.33h-19.124v-34.816h-8.22v42.142h27.344V355.622z
		 M504.194,334.547c0,8.119-0.477,10.071-2.076,11.849c-1.185,1.363-3.019,2.249-5.271,2.249s-4.146-0.886-5.331-2.249
		c-1.602-1.777-2.015-3.729-2.015-11.849c0-8.109,0.413-10.06,2.015-11.839c1.185-1.358,3.079-2.255,5.331-2.255
		c2.258,0,4.092,0.894,5.271,2.255C503.719,324.488,504.194,326.437,504.194,334.547 M512.409,334.547
		c0-7.276,0.062-12.558-4.195-16.809c-2.96-2.957-6.564-4.62-11.369-4.62c-4.792,0-8.472,1.663-11.428,4.62
		c-4.258,4.257-4.143,9.531-4.143,16.809c0,7.282-0.119,12.557,4.143,16.813c2.956,2.961,6.633,4.618,11.428,4.618
		c4.805,0,8.41-1.657,11.369-4.618C512.476,347.103,512.409,341.829,512.409,334.547 M466.065,334.547
		c0,8.119-0.477,10.071-2.071,11.849c-1.189,1.363-3.021,2.249-5.274,2.249c-2.255,0-4.146-0.886-5.335-2.249
		c-1.6-1.777-2.014-3.729-2.014-11.849c0-8.109,0.414-10.06,2.014-11.839c1.189-1.358,3.08-2.255,5.335-2.255
		c2.253,0,4.085,0.894,5.274,2.255C465.59,324.488,466.065,326.437,466.065,334.547 M474.29,334.547
		c0-7.276,0.058-12.558-4.205-16.809c-2.955-2.957-6.565-4.62-11.365-4.62c-4.804,0-8.476,1.663-11.431,4.62
		c-4.256,4.257-4.139,9.531-4.139,16.809c0,7.282-0.123,12.557,4.139,16.813c2.955,2.961,6.627,4.618,11.431,4.618
		c4.798,0,8.41-1.657,11.365-4.618C474.348,347.103,474.29,341.829,474.29,334.547 M434.879,355.622V313.48h-8.219v17.228h-14.273
		v-17.232h-8.225v42.142h8.225v-17.641h14.273v17.641h8.217L434.879,355.622L434.879,355.622z M397.195,342.666h-8.353
		c-0.828,3.373-2.959,5.979-7.104,5.979c-2.252,0-4.084-0.828-5.269-2.19c-1.596-1.772-2.078-3.788-2.078-11.906
		c0-8.109,0.479-10.125,2.078-11.896c1.185-1.363,3.017-2.202,5.269-2.202c4.145,0,6.276,2.617,7.104,5.988h8.353
		c-1.482-8.814-7.64-13.318-15.517-13.318c-4.619,0-8.399,1.663-11.366,4.618c-4.257,4.257-4.138,9.533-4.138,16.81
		c0,7.282-0.125,12.557,4.138,16.813c2.967,2.961,6.747,4.618,11.366,4.618C389.498,355.978,395.715,351.484,397.195,342.666
		 M359.691,343.193c0-3.729-1.009-6.814-3.256-8.943c-1.776-1.662-4.199-2.722-8.049-3.266l-4.975-0.703
		c-1.72-0.241-3.083-0.89-3.91-1.662c-0.888-0.828-1.244-1.952-1.244-3.016c0-2.904,2.133-5.331,6.515-5.331
		c2.783,0,5.981,0.355,8.646,2.897l5.207-5.146c-3.611-3.482-7.812-4.903-13.617-4.903c-9.122,0-14.677,5.263-14.677,12.777
		c0,3.554,1.003,6.281,3.013,8.299c1.896,1.835,4.558,2.961,8.168,3.487l5.095,0.708c1.957,0.294,2.901,0.711,3.732,1.481
		c0.889,0.832,1.302,2.071,1.302,3.555c0,3.37-2.608,5.208-7.464,5.208c-3.91,0-7.521-0.887-10.183-3.552l-5.321,5.331
		c4.144,4.205,8.99,5.563,15.389,5.563C352.887,355.978,359.691,351.36,359.691,343.193"/>
</g>
</svg>
