<?xml version="1.0" encoding="utf-8"?>
<!DOCTYPE svg PUBLIC "-//W3C//DTD SVG 1.1//EN" "http://www.w3.org/Graphics/SVG/1.1/DTD/svg11.dtd">
<svg version="1.1" id="endorsed_wordmark" xmlns="http://www.w3.org/2000/svg" xmlns:xlink="http://www.w3.org/1999/xlink" x="0px"
	 y="0px" viewBox="0 723.429 612 68.568" enable-background="new 0 723.429 612 68.568">
<path id="School_of_Architecture" fill="#808080" d="M612,791.704v-6.026h-16.062v-8.43h13.678v-6.026h-13.678v-8.133H612v-6.035
	h-22.823V791.7H612V791.704z M575.403,767.666c0,2.677-1.945,4.574-4.918,4.574h-6.385v-9.155h6.385
	C573.458,763.085,575.403,764.986,575.403,767.666 M583.571,791.704l-7.73-14.938c3.355-1.215,6.324-4.229,6.324-9.098
	c0-5.798-4.185-10.613-11.242-10.613h-13.578v34.646h6.754V777.88h4.871l6.771,13.822L583.571,791.704L583.571,791.704z
	 M549.877,779.834v-22.78h-6.707v22.542c0,3.983-2.383,6.371-6.039,6.371s-5.992-2.388-5.992-6.371v-22.542h-6.754v22.78
	c0,7.352,5.639,12.159,12.75,12.159C544.24,791.997,549.877,787.186,549.877,779.834 M519.123,763.085v-6.031h-24.866v6.031h9.047
	V791.7h6.764v-28.615H519.123z M490.456,781.053h-6.863c-0.684,2.772-2.434,4.914-5.843,4.914c-1.848,0-3.352-0.681-4.328-1.801
	c-1.314-1.457-1.707-3.113-1.707-9.788c0-6.668,0.393-8.324,1.707-9.781c0.979-1.121,2.484-1.81,4.328-1.81
	c3.409,0,5.159,2.151,5.843,4.923h6.863c-1.219-7.246-6.277-10.949-12.757-10.949c-3.797,0-6.91,1.367-9.344,3.797
	c-3.5,3.5-3.398,7.836-3.398,13.82c0,5.986-0.102,10.322,3.398,13.822c2.434,2.435,5.547,3.797,9.344,3.797
	C484.128,791.997,489.237,788.303,490.456,781.053 M460.031,791.704v-6.026h-16.062v-8.43h13.682v-6.026h-13.682v-8.133h16.062
	v-6.035h-22.819V791.7h22.819V791.704z M431.681,763.085v-6.031h-24.865v6.031h9.055V791.7h6.754v-28.615H431.681z M401.334,757.054
	h-6.758V791.7h6.758V757.054z M386.775,791.704v-34.646h-6.764v14.164h-11.74v-14.168h-6.755V791.7h6.755v-14.503h11.736V791.7
	h6.768V791.704z M355.792,781.053h-6.859c-0.684,2.772-2.438,4.914-5.844,4.914c-1.852,0-3.354-0.681-4.336-1.801
	c-1.309-1.457-1.703-3.113-1.703-9.788c0-6.668,0.396-8.324,1.703-9.781c0.98-1.121,2.484-1.81,4.336-1.81
	c3.406,0,5.16,2.151,5.844,4.923h6.859c-1.215-7.246-6.277-10.949-12.754-10.949c-3.797,0-6.914,1.367-9.344,3.797
	c-3.504,3.5-3.406,7.836-3.406,13.82c0,5.986-0.098,10.322,3.406,13.822c2.43,2.435,5.543,3.797,9.344,3.797
	C349.46,791.997,354.577,788.303,355.792,781.053 M317.859,767.666c0,2.677-1.949,4.574-4.922,4.574h-6.381v-9.155h6.381
	C315.91,763.085,317.859,764.986,317.859,767.666 M326.031,791.704l-7.73-14.938c3.354-1.215,6.32-4.229,6.32-9.098
	c0-5.798-4.18-10.613-11.238-10.613h-13.574v34.646h6.758V777.88h4.869l6.768,13.822L326.031,791.704L326.031,791.704z
	 M283.954,779.881h-8.617l4.378-12.608L283.954,779.881z M294.86,791.704l-12.66-34.646h-5.304l-12.605,34.646h7.059l2.09-6.129
	h12.32l2.043,6.129H294.86z M251.025,763.085v-6.031h-22.82V791.7h6.762v-14.064h13.675v-6.031h-13.675v-8.522h16.058V763.085
	L251.025,763.085z M214.663,774.378c0,6.675-0.387,8.279-1.703,9.74c-0.977,1.121-2.484,1.849-4.332,1.849
	c-1.852,0-3.41-0.728-4.387-1.849c-1.312-1.461-1.656-3.065-1.656-9.74c0-6.668,0.344-8.271,1.656-9.734
	c0.977-1.117,2.535-1.854,4.387-1.854c1.848,0,3.359,0.733,4.332,1.854C214.276,766.108,214.663,767.71,214.663,774.378
	 M221.424,774.378c0-5.984,0.047-10.324-3.453-13.82c-2.434-2.43-5.402-3.797-9.348-3.797c-3.946,0-6.961,1.367-9.394,3.797
	c-3.5,3.5-3.402,7.836-3.402,13.82c0,5.986-0.098,10.322,3.402,13.822c2.434,2.435,5.453,3.797,9.394,3.797s6.914-1.362,9.348-3.797
	C221.471,784.7,221.424,780.364,221.424,774.378 M180.324,791.704v-6.026h-15.723v-28.624h-6.757V791.7h22.48V791.704z
	 M144.301,774.378c0,6.675-0.391,8.279-1.707,9.74c-0.973,1.121-2.48,1.849-4.332,1.849c-1.852,0-3.41-0.728-4.383-1.849
	c-1.316-1.461-1.656-3.065-1.656-9.74c0-6.668,0.34-8.271,1.656-9.734c0.973-1.117,2.531-1.854,4.383-1.854
	c1.855,0,3.363,0.733,4.332,1.854C143.91,766.108,144.301,767.71,144.301,774.378 M151.055,774.378
	c0-5.984,0.051-10.324-3.449-13.82c-2.434-2.43-5.398-3.797-9.347-3.797c-3.941,0-6.965,1.367-9.395,3.797
	c-3.5,3.5-3.406,7.836-3.406,13.82c0,5.986-0.098,10.322,3.406,13.822c2.43,2.435,5.453,3.797,9.395,3.797
	c3.949,0,6.914-1.362,9.347-3.797C151.109,784.7,151.055,780.364,151.055,774.378 M112.954,774.378c0,6.675-0.391,8.279-1.703,9.74
	c-0.977,1.121-2.484,1.849-4.336,1.849c-1.855,0-3.41-0.728-4.386-1.849c-1.316-1.461-1.656-3.065-1.656-9.74
	c0-6.668,0.34-8.271,1.656-9.734c0.977-1.117,2.531-1.854,4.386-1.854c1.852,0,3.359,0.733,4.336,1.854
	C112.563,766.108,112.954,767.71,112.954,774.378 M119.716,774.378c0-5.984,0.047-10.324-3.457-13.82
	c-2.43-2.43-5.398-3.797-9.344-3.797c-3.949,0-6.968,1.367-9.398,3.797c-3.5,3.5-3.402,7.836-3.402,13.82
	c0,5.986-0.102,10.322,3.402,13.822c2.43,2.435,5.449,3.797,9.398,3.797c3.945,0,6.914-1.362,9.344-3.797
	C119.763,784.7,119.716,780.364,119.716,774.378 M87.314,791.704v-34.646h-6.757v14.164H68.822v-14.168h-6.761V791.7h6.761v-14.503
	h11.734V791.7h6.757L87.314,791.704L87.314,791.704z M56.334,781.053h-6.867c-0.68,2.772-2.433,4.914-5.839,4.914
	c-1.852,0-3.359-0.681-4.332-1.801c-1.312-1.457-1.707-3.113-1.707-9.788c0-6.668,0.391-8.324,1.707-9.781
	c0.973-1.121,2.48-1.81,4.332-1.81c3.406,0,5.16,2.151,5.839,4.923h6.867c-1.219-7.246-6.281-10.949-12.757-10.949
	c-3.797,0-6.906,1.367-9.344,3.797c-3.5,3.5-3.402,7.836-3.402,13.82c0,5.986-0.102,10.322,3.402,13.822
	c2.438,2.435,5.547,3.797,9.344,3.797C50.006,791.997,55.116,788.303,56.334,781.053 M25.5,781.486c0-3.065-0.828-5.602-2.676-7.352
	c-1.461-1.367-3.453-2.238-6.617-2.685l-4.09-0.578c-1.414-0.198-2.535-0.733-3.214-1.366c-0.73-0.681-1.023-1.605-1.023-2.48
	c0-2.387,1.753-4.383,5.355-4.383c2.289,0,4.918,0.293,7.109,2.383l4.281-4.232c-2.969-2.863-6.422-4.031-11.195-4.031
	c-7.5,0-12.066,4.328-12.066,10.504c0,2.922,0.824,5.164,2.477,6.824c1.559,1.508,3.746,2.434,6.714,2.866l4.188,0.582
	c1.609,0.242,2.387,0.585,3.07,1.219c0.73,0.684,1.07,1.703,1.07,2.922c0,2.771-2.145,4.281-6.137,4.281
	c-3.214,0-6.183-0.729-8.371-2.919L0,787.424c3.406,3.457,7.391,4.573,12.652,4.573C19.906,791.997,25.5,788.2,25.5,781.486"/>
<path id="The_University_of_Texas_at_Austin" d="M473.273,739.394c-0.311-0.156-0.332-0.227-0.332-0.812
	c0-1.047,0.082-1.891,0.104-2.229c0.031-0.223,0.078-0.328,0.172-0.328c0.125,0,0.146,0.078,0.146,0.227
	c0,0.188,0,0.496,0.068,0.777c0.316,1.555,1.717,2.168,3.148,2.168c2.051,0,3.062-1.479,3.062-2.82c0-1.452-0.614-2.288-2.454-3.78
	l-0.971-0.801c-2.246-1.835-2.758-3.148-2.758-4.562c0-2.258,1.691-3.797,4.418-3.797c0.815,0,1.434,0.078,1.964,0.211
	c0.41,0.07,0.6,0.102,0.758,0.102c0.164,0,0.203,0.048,0.203,0.146c0,0.102-0.082,0.805-0.082,2.238
	c0,0.336-0.047,0.479-0.141,0.479c-0.129,0-0.137-0.098-0.164-0.266c-0.035-0.242-0.16-0.828-0.293-1.06
	c-0.133-0.23-0.703-1.129-2.667-1.129c-1.457,0-2.594,0.926-2.594,2.457c0,1.207,0.578,1.922,2.568,3.555l0.599,0.448
	c2.521,1.978,3.121,3.267,3.121,4.953c0,0.867-0.35,2.478-1.816,3.5c-0.917,0.637-2.058,0.896-3.202,0.896
	C475.121,739.961,474.137,739.804,473.273,739.394 M454.688,738.476c-1.047-1-1.852-2.469-1.852-5.547v-3.093
	c0-3.293,0-3.884-0.047-4.552c-0.043-0.711-0.211-1.047-0.91-1.215c-0.176-0.022-0.543-0.055-0.729-0.055l-0.182-0.125
	c0-0.129,0.117-0.18,0.35-0.18c0.951,0,2.262,0.082,2.457,0.082c0.189,0,1.465-0.082,2.104-0.082c0.238,0,0.354,0.051,0.354,0.18
	l-0.164,0.125c-0.16,0-0.289,0.031-0.543,0.055c-0.574,0.082-0.738,0.48-0.793,1.215c-0.039,0.668-0.039,1.259-0.039,4.552v2.944
	c0,3.039,0.672,4.367,1.594,5.211c1.051,0.984,2.004,1.181,3.227,1.181c1.303,0,2.562-0.609,3.346-1.531
	c0.965-1.207,1.232-2.988,1.232-5.172v-2.632c0-3.293,0-3.884-0.055-4.552c-0.047-0.711-0.219-1.047-0.93-1.215
	c-0.148-0.022-0.514-0.055-0.707-0.055l-0.156-0.125c0-0.129,0.098-0.18,0.328-0.18c0.953,0,2.121,0.082,2.266,0.082
	c0.125,0,1.141-0.082,1.771-0.082c0.24,0,0.348,0.051,0.348,0.18l-0.168,0.125c-0.133,0-0.293,0-0.531,0.055
	c-0.57,0.125-0.754,0.48-0.793,1.215c-0.043,0.668-0.043,1.259-0.043,4.552v2.253c0,2.293-0.258,4.828-1.957,6.305
	c-1.539,1.375-3.147,1.566-4.387,1.566C458.367,739.961,456.219,739.879,454.688,738.476 M366.408,739.394
	c-0.297-0.156-0.332-0.227-0.332-0.812c0-1.047,0.098-1.891,0.113-2.229c0.012-0.223,0.062-0.328,0.172-0.328
	c0.111,0,0.145,0.078,0.145,0.227c0,0.188,0,0.496,0.062,0.777c0.322,1.555,1.723,2.168,3.145,2.168c2.066,0,3.062-1.479,3.062-2.82
	c0-1.452-0.621-2.288-2.453-3.78l-0.965-0.801c-2.25-1.835-2.764-3.148-2.764-4.562c0-2.258,1.691-3.797,4.406-3.797
	c0.816,0,1.438,0.078,1.965,0.211c0.418,0.07,0.586,0.102,0.773,0.102c0.15,0,0.203,0.048,0.203,0.146
	c0,0.102-0.086,0.805-0.086,2.238c0,0.336-0.039,0.479-0.152,0.479c-0.125,0-0.152-0.098-0.172-0.266
	c-0.023-0.242-0.146-0.828-0.271-1.06c-0.137-0.233-0.703-1.129-2.668-1.129c-1.453,0-2.629,0.926-2.629,2.457
	c0,1.207,0.605,1.922,2.613,3.555l0.582,0.448c2.521,1.978,3.125,3.267,3.125,4.953c0,0.867-0.344,2.478-1.824,3.5
	c-0.914,0.637-2.062,0.896-3.211,0.896C368.248,739.961,367.275,739.804,366.408,739.394 M248.873,731.683
	c0-3.417,2.512-8.25,8.375-8.25c4.789,0,8.378,2.965,8.378,7.906c0,4.719-3.379,8.621-8.503,8.621
	C251.294,739.961,248.873,735.476,248.873,731.683 M250.884,731.069c0,4.938,2.977,8.099,6.824,8.099
	c1.898,0,5.871-1.117,5.871-7.255c0-5.058-3.105-7.772-6.476-7.772C253.544,724.141,250.884,726.465,250.884,731.069
	 M177.984,739.394c-0.289-0.156-0.316-0.227-0.316-0.812c0-1.047,0.074-1.891,0.113-2.229c0.004-0.223,0.043-0.328,0.145-0.328
	c0.156,0,0.164,0.078,0.164,0.227c0,0.188,0,0.496,0.082,0.777c0.297,1.555,1.711,2.168,3.136,2.168c2.035,0,3.043-1.479,3.043-2.82
	c0-1.452-0.629-2.288-2.441-3.78l-0.957-0.801c-2.254-1.835-2.777-3.148-2.777-4.562c0-2.258,1.707-3.797,4.41-3.797
	c0.836,0,1.445,0.078,1.973,0.211c0.422,0.07,0.574,0.102,0.75,0.102c0.164,0,0.219,0.048,0.219,0.146
	c0,0.102-0.086,0.805-0.086,2.238c0,0.336-0.051,0.479-0.16,0.479c-0.113,0-0.152-0.098-0.18-0.266
	c-0.008-0.242-0.121-0.828-0.27-1.06c-0.102-0.233-0.695-1.129-2.656-1.129c-1.476,0-2.621,0.926-2.621,2.457
	c0,1.207,0.602,1.922,2.589,3.555l0.613,0.448c2.504,1.978,3.102,3.267,3.102,4.953c0,0.867-0.332,2.478-1.801,3.5
	c-0.914,0.637-2.062,0.896-3.203,0.896C179.832,739.961,178.843,739.804,177.984,739.394 M129.446,738.655l-5.23-12.933
	c-0.465-1.176-0.766-1.41-1.516-1.633c-0.324-0.078-0.688-0.078-0.824-0.078l-0.16-0.142c0-0.129,0.207-0.164,0.551-0.164
	c1.016,0,2.246,0.082,2.5,0.082c0.211,0,1.172-0.082,1.973-0.082c0.391,0,0.578,0.052,0.578,0.164c0,0.095-0.059,0.142-0.219,0.142
	c-0.223,0-0.625,0.031-0.812,0.104c-0.211,0.113-0.27,0.267-0.27,0.427c0,0.266,0.258,0.918,0.586,1.745l4.086,10.805
	c1.23-2.84,4.07-10.214,4.559-11.73c0.102-0.289,0.18-0.598,0.18-0.797c0-0.152-0.062-0.379-0.285-0.479
	c-0.234-0.078-0.57-0.078-0.812-0.078l-0.227-0.125c0-0.129,0.141-0.181,0.473-0.181c0.852,0,1.832,0.082,2.094,0.082
	c0.129,0,1.055-0.082,1.66-0.082c0.227,0,0.363,0.052,0.363,0.164c0,0.095-0.094,0.142-0.262,0.142c-0.148,0-0.609,0-1.012,0.258
	c-0.285,0.176-0.594,0.543-1.164,1.977c-0.242,0.595-1.305,3.121-2.402,5.714c-1.281,3.082-2.254,5.375-2.734,6.402
	c-0.598,1.262-0.688,1.594-0.91,1.594C129.961,739.961,129.852,739.655,129.446,738.655 M70.838,738.476
	c-1.055-1-1.867-2.469-1.867-5.547v-3.093c0-3.293,0-3.884-0.047-4.552c-0.027-0.711-0.207-1.047-0.914-1.215
	c-0.16-0.022-0.539-0.055-0.73-0.055l-0.168-0.125c0-0.129,0.121-0.18,0.355-0.18c0.957,0,2.258,0.082,2.453,0.082
	c0.195,0,1.461-0.082,2.102-0.082c0.227,0,0.348,0.051,0.348,0.18l-0.184,0.125c-0.141,0-0.27,0.031-0.523,0.055
	c-0.582,0.082-0.734,0.48-0.781,1.215c-0.043,0.668-0.043,1.259-0.043,4.552v2.944c0,3.039,0.664,4.367,1.582,5.211
	c1.062,0.984,2.023,1.181,3.227,1.181c1.293,0,2.562-0.609,3.332-1.531c0.996-1.207,1.258-2.988,1.258-5.172v-2.632
	c0-3.293,0-3.884-0.055-4.552c-0.051-0.711-0.207-1.047-0.926-1.215c-0.172-0.022-0.523-0.055-0.73-0.055l-0.16-0.125
	c0-0.129,0.086-0.18,0.34-0.18c0.953,0,2.137,0.082,2.254,0.082c0.148,0,1.152-0.082,1.805-0.082c0.219,0,0.344,0.051,0.344,0.18
	l-0.176,0.125c-0.148,0-0.285,0-0.539,0.055c-0.582,0.125-0.746,0.48-0.793,1.215c-0.031,0.668-0.031,1.259-0.031,4.552v2.253
	c0,2.293-0.262,4.828-1.957,6.305c-1.535,1.375-3.141,1.566-4.395,1.566C74.498,739.961,72.342,739.879,70.838,738.476
	 M530.924,738.476c-0.229-0.215-3.312-3.316-5.564-5.719c-2.479-2.646-4.885-5.309-5.57-6.059l0.281,10.093
	c0.039,1.73,0.262,2.277,0.832,2.445c0.404,0.105,0.883,0.129,1.076,0.129l0.148,0.146c0,0.117-0.121,0.145-0.363,0.145
	c-1.236,0-2.094-0.043-2.279-0.043c-0.182,0-1.074,0.043-2.035,0.043c-0.215,0-0.355-0.008-0.355-0.145l0.182-0.146
	c0.176,0,0.564-0.022,0.879-0.129c0.531-0.145,0.65-0.746,0.65-2.664l0.01-12.117c0-0.801,0.059-1.026,0.232-1.026
	c0.172,0,0.523,0.457,0.738,0.66c0.32,0.358,3.5,3.754,6.785,7.246c2.125,2.233,4.434,4.809,5.107,5.491l-0.232-10.703
	c-0.031-1.366-0.182-1.848-0.85-2.008c-0.367-0.078-0.854-0.104-1.035-0.104c-0.141,0-0.172-0.062-0.172-0.142
	c0-0.129,0.172-0.164,0.441-0.164c0.945,0,1.969,0.082,2.195,0.082c0.24,0,0.957-0.082,1.836-0.082c0.236,0,0.383,0.035,0.383,0.164
	c0,0.082-0.098,0.142-0.242,0.142c-0.104,0-0.254,0-0.508,0.055c-0.691,0.168-0.785,0.625-0.785,1.879l-0.066,12.371
	c0,1.383-0.029,1.484-0.184,1.484C532.291,739.804,532.033,739.581,530.924,738.476 M102.169,738.476
	c-0.227-0.215-3.289-3.316-5.562-5.719c-2.449-2.646-4.852-5.309-5.535-6.059l0.289,10.093c0.031,1.73,0.242,2.277,0.816,2.445
	c0.414,0.105,0.867,0.129,1.062,0.129l0.172,0.146c0,0.117-0.133,0.145-0.402,0.145c-1.191,0-2.035-0.043-2.242-0.043
	c-0.199,0-1.09,0.043-2.039,0.043c-0.219,0-0.363-0.008-0.363-0.145l0.199-0.146c0.164,0,0.531-0.022,0.863-0.129
	c0.535-0.145,0.652-0.746,0.652-2.664l0.004-12.117c-0.004-0.797,0.078-1.022,0.246-1.022c0.164,0,0.527,0.457,0.742,0.66
	c0.32,0.358,3.504,3.754,6.766,7.246c2.109,2.233,4.422,4.809,5.094,5.491l-0.215-10.702c-0.027-1.367-0.18-1.849-0.824-2.009
	c-0.398-0.078-0.879-0.104-1.062-0.104c-0.148,0-0.16-0.062-0.16-0.142c0-0.129,0.16-0.163,0.418-0.163
	c0.953,0,1.977,0.081,2.23,0.081c0.223,0,0.93-0.081,1.805-0.081c0.23,0,0.378,0.034,0.378,0.163c0,0.082-0.07,0.142-0.242,0.142
	c-0.101,0-0.25,0-0.503,0.055c-0.703,0.168-0.793,0.625-0.793,1.879l-0.031,12.371c0,1.383-0.051,1.484-0.191,1.484
	C103.556,739.804,103.318,739.581,102.169,738.476 M316.824,739.616c-0.07,0-0.414,0.017-0.871,0.017
	c-0.43,0.02-0.922,0.026-1.23,0.026c-0.24,0-0.344-0.026-0.344-0.145l0.176-0.146c0.188,0,0.445-0.047,0.629-0.086
	c0.41-0.073,0.527-0.53,0.613-1.16c0.105-0.891,0.105-2.551,0.105-4.573v-3.71c0-3.293,0-3.883-0.031-4.552
	c-0.059-0.711-0.219-1.047-0.93-1.215c-0.164-0.022-0.521-0.055-0.721-0.055l-0.168-0.129c0-0.129,0.105-0.18,0.336-0.18
	c0.979,0,2.307,0.082,2.436,0.082c0.113,0,4.363,0,4.857-0.031c0.398-0.017,0.742-0.074,0.918-0.103l0.277-0.098l0.104,0.188
	c0,0.145-0.109,0.395-0.182,0.987c-0.008,0.228-0.047,1.152-0.09,1.396l-0.16,0.229c-0.129,0-0.168-0.104-0.168-0.258
	c0-0.156-0.025-0.52-0.113-0.77c-0.158-0.328-0.383-0.595-1.547-0.728c-0.348-0.031-2.672-0.055-2.908-0.055
	c-0.082,0-0.117,0.055-0.117,0.215v5.796c0,0.172,0.02,0.228,0.117,0.228c0.279,0,2.908,0,3.395-0.039
	c0.516-0.048,0.809-0.095,1-0.285c0.148-0.195,0.23-0.289,0.32-0.289l0.111,0.168c0,0.121-0.111,0.5-0.188,1.176
	c-0.031,0.426-0.074,1.211-0.074,1.344c0,0.191,0,0.41-0.145,0.41l-0.152-0.195c0-0.223,0-0.409-0.07-0.688
	c-0.09-0.305-0.285-0.68-1.121-0.754c-0.582-0.039-2.684-0.105-3.033-0.105l-0.16,0.152v1.863c0,0.719-0.035,3.18,0,3.608
	c0.068,1.457,0.379,1.73,2.469,1.73c0.559,0,1.504,0,2.043-0.23c0.559-0.227,0.832-0.668,0.973-1.512
	c0.039-0.229,0.082-0.348,0.188-0.348c0.129,0,0.129,0.194,0.129,0.348s-0.18,1.602-0.277,2.043
	c-0.15,0.531-0.336,0.531-1.164,0.531C318.84,739.722,317.414,739.616,316.824,739.616 M145.645,739.616
	c-0.039,0-0.414,0.017-0.863,0.017c-0.43,0.02-0.895,0.026-1.234,0.026c-0.234,0-0.336-0.026-0.336-0.145l0.195-0.146
	c0.164,0,0.418-0.047,0.609-0.086c0.43-0.073,0.527-0.53,0.637-1.16c0.082-0.891,0.082-2.551,0.082-4.573v-3.71
	c0-3.293,0-3.883-0.031-4.552c-0.043-0.711-0.219-1.047-0.922-1.215c-0.164-0.022-0.531-0.055-0.723-0.055l-0.164-0.125
	c0-0.129,0.105-0.18,0.332-0.18c0.973,0,2.32,0.082,2.422,0.082c0.133,0,4.371,0,4.887-0.031c0.383-0.016,0.719-0.074,0.914-0.103
	l0.285-0.098l0.082,0.188c0,0.145-0.098,0.395-0.168,0.987c-0.02,0.228-0.062,1.152-0.094,1.396l-0.164,0.229
	c-0.137,0-0.18-0.104-0.18-0.258c0-0.156-0.008-0.52-0.117-0.77c-0.148-0.328-0.367-0.595-1.508-0.728
	c-0.363-0.03-2.684-0.055-2.918-0.055c-0.09,0-0.129,0.055-0.129,0.215v5.796c0,0.172,0.023,0.228,0.129,0.228
	c0.285,0,2.902,0,3.387-0.039c0.512-0.047,0.816-0.095,0.996-0.285c0.156-0.195,0.25-0.289,0.328-0.289l0.094,0.168
	c0,0.121-0.094,0.5-0.164,1.176c-0.051,0.426-0.094,1.211-0.094,1.344c0,0.191,0,0.41-0.145,0.41l-0.156-0.199
	c0-0.223,0-0.409-0.098-0.688c-0.062-0.305-0.258-0.68-1.086-0.754c-0.574-0.039-2.695-0.105-3.047-0.105l-0.152,0.152v1.863
	c0,0.719-0.031,3.18,0,3.608c0.059,1.457,0.375,1.73,2.457,1.73c0.574,0,1.504,0,2.051-0.23c0.555-0.227,0.809-0.668,0.973-1.512
	c0.035-0.229,0.062-0.348,0.191-0.348s0.129,0.194,0.129,0.348s-0.18,1.602-0.285,2.043c-0.152,0.531-0.316,0.531-1.148,0.531
	C147.691,739.722,146.254,739.616,145.645,739.616 M45.433,739.616c-0.051,0-0.406,0.017-0.855,0.017
	c-0.414,0.02-0.91,0.026-1.227,0.026c-0.234,0-0.355-0.026-0.355-0.145l0.188-0.146c0.203,0,0.445-0.047,0.633-0.086
	c0.426-0.073,0.535-0.53,0.625-1.16c0.113-0.891,0.113-2.551,0.113-4.573v-3.71c0-3.293,0-3.883-0.066-4.552
	c-0.031-0.711-0.199-1.047-0.902-1.215c-0.168-0.022-0.547-0.055-0.723-0.055l-0.168-0.125c0-0.129,0.105-0.18,0.34-0.18
	c0.961,0,2.309,0.082,2.402,0.082c0.145,0,4.386,0,4.886-0.031c0.395-0.016,0.734-0.074,0.93-0.103l0.281-0.098l0.09,0.188
	c0,0.145-0.109,0.395-0.18,0.987c-0.008,0.228-0.066,1.152-0.109,1.396l-0.145,0.229c-0.133,0-0.172-0.104-0.172-0.258
	c0-0.156-0.023-0.52-0.125-0.77c-0.156-0.328-0.367-0.595-1.527-0.728c-0.344-0.03-2.671-0.055-2.91-0.055
	c-0.074,0-0.113,0.055-0.113,0.215v5.796c0,0.172,0.012,0.228,0.113,0.228c0.289,0,2.906,0,3.386-0.039
	c0.52-0.047,0.812-0.095,1.012-0.285c0.145-0.195,0.234-0.289,0.324-0.289l0.105,0.168c0,0.121-0.105,0.5-0.188,1.176
	c-0.035,0.426-0.078,1.211-0.078,1.344c0,0.191,0,0.41-0.152,0.41l-0.152-0.199c0-0.223,0-0.409-0.082-0.688
	c-0.082-0.305-0.277-0.68-1.113-0.754c-0.57-0.039-2.687-0.105-3.031-0.105l-0.156,0.152v1.863c0,0.719-0.027,3.18,0,3.608
	c0.047,1.457,0.387,1.73,2.46,1.73c0.562,0,1.488,0,2.051-0.23c0.547-0.227,0.809-0.668,0.969-1.512
	c0.039-0.229,0.074-0.348,0.188-0.348c0.129,0,0.129,0.194,0.129,0.348s-0.191,1.602-0.277,2.043
	c-0.148,0.531-0.32,0.531-1.152,0.531C47.483,739.722,46.062,739.616,45.433,739.616 M508.14,739.616
	c-0.102,0-1.451,0.043-2.082,0.043c-0.236,0-0.332-0.026-0.332-0.145l0.178-0.146c0.188,0,0.434-0.047,0.629-0.086
	c0.426-0.073,0.531-0.53,0.611-1.16c0.113-0.891,0.113-2.551,0.113-4.573v-3.71c0-3.293,0-3.883-0.043-4.552
	c-0.055-0.711-0.258-1.086-0.729-1.19c-0.229-0.047-0.523-0.078-0.668-0.078l-0.182-0.125c0-0.129,0.121-0.18,0.35-0.18
	c0.697,0,2.047,0.082,2.15,0.082c0.113,0,1.449-0.082,2.074-0.082c0.262,0,0.354,0.051,0.354,0.18l-0.16,0.125
	c-0.156,0-0.277,0.031-0.543,0.055c-0.57,0.125-0.738,0.48-0.785,1.215c-0.043,0.668-0.043,1.259-0.043,4.552v3.71
	c0,2.022,0,3.684,0.102,4.574c0.078,0.629,0.199,1.086,0.85,1.159c0.293,0.043,0.753,0.086,0.946,0.086l0.178,0.146
	c0,0.102-0.125,0.145-0.358,0.145C509.589,739.655,508.253,739.616,508.14,739.616 M493.296,739.616
	c-0.109,0-1.457,0.043-2.086,0.043c-0.246,0-0.354-0.026-0.354-0.145l0.168-0.146c0.201,0,0.451-0.047,0.654-0.086
	c0.422-0.073,0.523-0.53,0.621-1.16c0.082-0.891,0.082-2.551,0.082-4.573v-8.93l-3.137,0.039c-1.332,0.039-1.836,0.185-2.186,0.688
	c-0.219,0.359-0.287,0.508-0.357,0.647c-0.07,0.168-0.117,0.216-0.203,0.216l-0.105-0.185c0-0.219,0.424-2.031,0.449-2.203
	l0.219-0.391c0.146,0,0.371,0.211,0.949,0.242c0.609,0.074,1.414,0.117,1.688,0.117h7.977c0.686,0,1.191-0.082,1.527-0.117
	c0.314-0.062,0.496-0.113,0.586-0.113l0.113,0.258c0,0.633-0.078,2.099-0.078,2.336c0,0.191-0.062,0.242-0.152,0.242
	c-0.098,0-0.133-0.039-0.156-0.336l-0.035-0.219c-0.08-0.652-0.576-1.148-2.619-1.188l-2.678-0.039v8.926
	c0,2.022,0,3.684,0.104,4.573c0.074,0.629,0.193,1.086,0.852,1.16c0.271,0.043,0.754,0.086,0.938,0.086l0.168,0.146
	c0,0.102-0.104,0.145-0.35,0.145C494.761,739.655,493.417,739.616,493.296,739.616 M444.387,739.629
	c-0.422-0.017-0.641-0.017-0.641-0.148l0.137-0.16c0.146-0.043,0.262-0.229,0.146-0.57l-1.996-5.172l-0.195-0.137h-4.569
	l-0.215,0.168l-1.28,3.734c-0.173,0.531-0.306,1.047-0.306,1.406c0,0.44,0.469,0.616,0.824,0.616h0.211
	c0.152,0,0.215,0.047,0.215,0.146c0,0.117-0.125,0.145-0.312,0.145c-0.51,0-1.432-0.043-1.664-0.043c-0.25,0-1.414,0.043-2.41,0.043
	c-0.273,0-0.41-0.026-0.41-0.145l0.191-0.146c0.145,0,0.439-0.022,0.615-0.047c0.979-0.113,1.402-0.926,1.793-1.979l4.812-13.089
	c0.281-0.695,0.363-0.82,0.48-0.82c0.145,0,0.215,0.094,0.479,0.762c0.316,0.805,3.664,9.511,4.965,12.722
	c0.754,1.871,1.379,2.195,1.836,2.32c0.311,0.105,0.633,0.129,0.84,0.129l0.234,0.146c0,0.116-0.211,0.145-0.441,0.145
	C447.398,739.655,445.852,739.655,444.387,739.629 M439.297,726.848l-1.854,5.69l0.043,0.138h4.071l0.092-0.138l-2.035-5.69
	c-0.053-0.156-0.096-0.238-0.146-0.238C439.423,726.609,439.359,726.691,439.297,726.848 M412.513,739.616
	c-0.098,0-1.434,0.043-2.082,0.043c-0.223,0-0.322-0.026-0.322-0.145l0.164-0.146c0.188,0,0.443-0.047,0.619-0.086
	c0.453-0.073,0.539-0.53,0.648-1.16c0.086-0.891,0.086-2.551,0.086-4.573v-8.93l-3.145,0.039c-1.316,0.039-1.828,0.185-2.191,0.688
	c-0.215,0.359-0.273,0.508-0.348,0.647c-0.066,0.168-0.121,0.216-0.207,0.216l-0.1-0.185c0-0.219,0.422-2.031,0.461-2.203
	l0.188-0.391c0.156,0,0.387,0.211,0.939,0.242c0.652,0.074,1.441,0.117,1.699,0.117h7.988c0.688,0,1.18-0.082,1.52-0.117
	c0.316-0.062,0.51-0.113,0.592-0.113l0.104,0.258c0,0.633-0.07,2.099-0.07,2.336c0,0.191-0.047,0.242-0.15,0.242
	c-0.094,0-0.152-0.039-0.16-0.336l-0.021-0.219c-0.09-0.652-0.582-1.148-2.615-1.188l-2.682-0.039v8.926c0,2.022,0,3.684,0.1,4.573
	c0.062,0.629,0.193,1.086,0.822,1.16c0.303,0.043,0.773,0.086,0.979,0.086l0.164,0.146c0,0.102-0.113,0.145-0.354,0.145
	C413.962,739.655,412.626,739.616,412.513,739.616 M400.678,739.629c-0.41-0.017-0.637-0.017-0.637-0.148l0.16-0.16
	c0.104-0.043,0.232-0.229,0.104-0.57l-1.965-5.172l-0.211-0.137h-4.564l-0.238,0.168l-1.268,3.734
	c-0.184,0.531-0.301,1.047-0.301,1.406c0,0.44,0.457,0.616,0.793,0.616h0.23c0.164,0,0.215,0.047,0.215,0.146
	c0,0.117-0.129,0.145-0.324,0.145c-0.488,0-1.414-0.043-1.641-0.043c-0.238,0-1.406,0.043-2.406,0.043
	c-0.277,0-0.406-0.026-0.406-0.145l0.195-0.146c0.133,0,0.43-0.022,0.625-0.047c0.949-0.113,1.383-0.926,1.766-1.979l4.842-13.089
	c0.258-0.695,0.348-0.82,0.477-0.82c0.125,0,0.203,0.094,0.473,0.762c0.312,0.805,3.648,9.511,4.957,12.722
	c0.764,1.871,1.375,2.195,1.824,2.32c0.32,0.105,0.646,0.129,0.844,0.129l0.225,0.146c0,0.116-0.191,0.145-0.422,0.145
	C403.7,739.655,402.142,739.655,400.678,739.629 M395.604,726.848l-1.875,5.69l0.062,0.138h4.074l0.078-0.138l-2.004-5.69
	c-0.053-0.156-0.121-0.238-0.178-0.238C395.713,726.609,395.658,726.691,395.604,726.848 M357.854,739.629
	c-0.391-0.017-0.637-0.017-0.637-0.148l0.143-0.16c0.145-0.043,0.258-0.229,0.145-0.57l-1.988-5.172l-0.189-0.137h-4.586
	l-0.211,0.168l-1.277,3.734c-0.18,0.531-0.305,1.047-0.305,1.406c0,0.44,0.469,0.616,0.822,0.616h0.225
	c0.156,0,0.203,0.047,0.203,0.146c0,0.117-0.139,0.145-0.316,0.145c-0.5,0-1.43-0.043-1.672-0.043c-0.234,0-1.406,0.043-2.396,0.043
	c-0.271,0-0.43-0.026-0.43-0.145l0.215-0.146c0.143,0,0.436-0.022,0.609-0.047c0.979-0.113,1.414-0.926,1.789-1.979l4.836-13.089
	c0.258-0.691,0.354-0.816,0.461-0.816c0.137,0,0.219,0.094,0.484,0.762c0.293,0.806,3.645,9.511,4.947,12.723
	c0.781,1.87,1.396,2.194,1.846,2.319c0.318,0.105,0.637,0.129,0.852,0.129l0.23,0.146c0,0.117-0.217,0.145-0.445,0.145
	C360.89,739.655,359.331,739.655,357.854,739.629 M352.784,726.848l-1.871,5.69l0.07,0.138h4.051l0.082-0.138l-2.021-5.69
	c-0.043-0.156-0.104-0.238-0.15-0.238C352.909,726.609,352.851,726.691,352.784,726.848 M339.835,739.629
	c-0.539-0.052-0.652-0.06-0.652-0.181l0.146-0.172c0.094-0.043,0.285-0.242,0.094-0.57c-1.141-2.098-2.395-4.18-3.66-6.297
	l-3.332,5.578c-0.198,0.34-0.271,0.734-0.271,0.935c0,0.207,0.16,0.354,0.348,0.397l0.387,0.047l0.178,0.146
	c0,0.117-0.104,0.145-0.26,0.145c-0.49,0-1.848-0.043-2.033-0.043c-0.188,0-1.225,0.043-1.945,0.043
	c-0.164,0-0.203-0.043-0.203-0.145l0.16-0.146c0.18,0,0.5-0.022,0.814-0.086c0.646-0.188,1.053-0.645,1.756-1.719l3.869-6.043
	l-3.408-5.664c-0.5-0.82-0.938-1.43-1.668-1.699c-0.342-0.098-0.771-0.137-0.896-0.137l-0.188-0.141c0-0.113,0.09-0.164,0.379-0.164
	c0.582,0,2.293,0.082,2.482,0.082c0.186,0,1.271-0.082,2.009-0.082c0.28,0,0.349,0.051,0.349,0.164l-0.191,0.137
	c-0.129,0-0.4,0-0.578,0.055c-0.189,0.07-0.245,0.215-0.245,0.359c0,0.229,0.081,0.465,0.212,0.711
	c0.896,1.656,1.77,3.233,2.869,5.035c0.639-0.914,2.919-4.539,3.131-4.96c0.158-0.32,0.232-0.521,0.232-0.763
	c0-0.137-0.164-0.312-0.387-0.383c-0.203-0.055-0.5-0.055-0.629-0.055l-0.211-0.141c0-0.082,0.116-0.164,0.371-0.164
	c0.812,0,1.711,0.082,1.9,0.082c0.195,0,1.07-0.082,1.797-0.082c0.234,0,0.32,0.082,0.32,0.164c0,0.081-0.065,0.141-0.215,0.141
	c-0.146,0-0.469,0.031-0.715,0.104c-0.617,0.191-1.004,0.802-1.629,1.72l-3.445,5.085c0.414,0.672,4.07,6.78,4.504,7.371
	c0.344,0.448,0.637,0.746,1.271,0.938c0.297,0.082,0.611,0.129,0.74,0.129l0.164,0.146c0,0.102-0.104,0.145-0.297,0.145
	C341.952,739.655,340.948,739.647,339.835,739.629 M301.949,739.616c-0.098,0-1.438,0.043-2.094,0.043
	c-0.219,0-0.32-0.026-0.32-0.145l0.156-0.146c0.195,0,0.457-0.047,0.645-0.086c0.434-0.073,0.531-0.53,0.613-1.16
	c0.121-0.891,0.121-2.551,0.121-4.573v-8.93l-3.168,0.039c-1.324,0.039-1.836,0.185-2.16,0.688
	c-0.246,0.359-0.305,0.508-0.371,0.647c-0.051,0.168-0.137,0.216-0.215,0.216l-0.102-0.185c0-0.219,0.426-2.031,0.477-2.203
	l0.203-0.391c0.145,0,0.359,0.211,0.945,0.242c0.605,0.074,1.41,0.117,1.66,0.117h8.008c1.355,0,1.932-0.234,2.109-0.234
	l0.104,0.258c0,0.633-0.064,2.098-0.064,2.336c0,0.191-0.051,0.242-0.152,0.242c-0.117,0-0.16-0.039-0.164-0.336l-0.021-0.215
	c-0.078-0.652-0.574-1.148-2.609-1.188l-2.676-0.039v8.926c0,2.022,0,3.684,0.074,4.573c0.07,0.629,0.188,1.086,0.848,1.16
	c0.297,0.043,0.754,0.086,0.945,0.086l0.184,0.146c0,0.102-0.102,0.145-0.332,0.145C303.395,739.655,302.07,739.616,301.949,739.616
	 M273.919,739.616c-0.121,0-1.461,0.043-2.078,0.043c-0.242,0-0.352-0.026-0.352-0.145l0.164-0.146c0.195,0,0.445-0.047,0.652-0.086
	c0.414-0.073,0.523-0.53,0.605-1.16c0.109-0.891,0.109-2.551,0.109-4.573v-3.71c0-3.293,0-3.883-0.035-4.552
	c-0.047-0.711-0.207-1.047-0.918-1.215c-0.18-0.022-0.539-0.055-0.738-0.055l-0.156-0.125c0-0.129,0.098-0.18,0.336-0.18
	c0.949,0,2.289,0.082,2.41,0.082c0.43,0,4.746,0,5.238-0.031c0.402-0.016,0.738-0.016,0.926-0.086l0.305-0.113l0.129,0.188
	c0,0.145-0.105,0.395-0.176,0.987c-0.02,0.228-0.059,1.152-0.102,1.396l-0.156,0.229c-0.102,0-0.156-0.104-0.156-0.25
	c0-0.164-0.07-0.526-0.188-0.793c-0.133-0.28-0.625-0.655-1.461-0.694l-3.261-0.047c-0.152,0-0.191,0.047-0.191,0.223v5.82
	l0.129,0.194l2.742-0.022c0.355,0,0.66,0,0.961-0.031c0.504-0.023,0.781-0.103,0.969-0.367l0.238-0.219l0.125,0.168
	c0,0.121-0.125,0.5-0.18,1.176c-0.047,0.426-0.102,1.262-0.102,1.41c0,0.195,0,0.406-0.141,0.406l-0.148-0.177
	c-0.027-0.229-0.047-0.512-0.133-0.762c-0.102-0.305-0.43-0.694-1.109-0.754c-0.531-0.078-2.835-0.078-3.218-0.078
	c-0.094,0-0.129,0.047-0.129,0.199v1.785c0,2.022,0,3.684,0.082,4.574c0.082,0.629,0.211,1.086,0.852,1.159
	c0.289,0.043,0.762,0.087,0.961,0.087l0.16,0.145c0,0.102-0.09,0.145-0.324,0.145C275.368,739.655,274.021,739.616,273.919,739.616
	 M227.943,739.616c-0.105,0-1.457,0.043-2.09,0.043c-0.238,0-0.332-0.026-0.332-0.145l0.164-0.146c0.188,0,0.438-0.047,0.645-0.086
	c0.422-0.073,0.617-0.53,0.648-1.16c0.074-0.891,0.074-1.77,0.074-2.098v-1.832c0-1.145-0.223-1.602-0.496-2.219
	c-0.148-0.336-3-4.957-3.754-6.058c-0.539-0.777-1.062-1.312-1.457-1.57c-0.312-0.207-0.723-0.328-0.906-0.328l-0.219-0.141
	c0-0.082,0.094-0.164,0.281-0.164c0.414,0,2.012,0.082,2.109,0.082c0.16,0,0.965-0.082,1.789-0.082c0.234,0,0.285,0.082,0.285,0.164
	s-0.141,0.094-0.316,0.18c-0.184,0.082-0.297,0.223-0.297,0.375c0,0.266,0.113,0.531,0.297,0.84c0.352,0.617,3.527,6.042,3.91,6.645
	c0.398-0.88,3.102-5.516,3.539-6.188c0.262-0.441,0.363-0.801,0.363-1.066c0-0.312-0.102-0.534-0.336-0.602
	c-0.195-0.062-0.324-0.098-0.324-0.203c0-0.09,0.129-0.141,0.344-0.141c0.539,0,1.223,0.082,1.395,0.082
	c0.133,0,1.668-0.082,2.066-0.082c0.164,0,0.281,0.051,0.281,0.141c0,0.103-0.117,0.164-0.281,0.164
	c-0.227,0-0.629,0.078-0.98,0.297c-0.418,0.258-0.648,0.504-1.121,1.06c-0.715,0.858-3.664,5.815-4.059,6.718
	c-0.32,0.754-0.32,1.41-0.32,2.104v1.828c0,0.328,0,1.211,0.051,2.099c0.043,0.629,0.234,1.086,0.879,1.159
	c0.309,0.043,0.766,0.086,0.965,0.086l0.164,0.146c0,0.102-0.109,0.145-0.352,0.145
	C229.389,739.655,228.049,739.616,227.943,739.616 M210.26,739.616c-0.109,0-1.461,0.043-2.086,0.043
	c-0.234,0-0.336-0.026-0.336-0.145l0.168-0.146c0.184,0,0.457-0.047,0.633-0.086c0.43-0.073,0.543-0.53,0.621-1.16
	c0.125-0.891,0.125-2.551,0.125-4.573v-8.93l-3.172,0.039c-1.328,0.039-1.832,0.185-2.16,0.688
	c-0.254,0.359-0.312,0.508-0.379,0.647c-0.051,0.164-0.125,0.212-0.207,0.212l-0.113-0.185c0-0.219,0.43-2.031,0.477-2.203
	l0.223-0.387c0.141,0,0.359,0.211,0.918,0.242c0.609,0.074,1.414,0.117,1.68,0.117h8.004c0.68,0,1.172-0.082,1.5-0.117
	c0.328-0.062,0.516-0.113,0.582-0.113l0.121,0.258c0,0.633-0.062,2.099-0.062,2.336c0,0.191-0.059,0.242-0.148,0.242
	c-0.098,0-0.152-0.039-0.164-0.336l-0.027-0.219c-0.086-0.652-0.566-1.148-2.617-1.188l-2.695-0.039v8.926
	c0,2.022,0,3.684,0.117,4.573c0.059,0.629,0.195,1.086,0.844,1.16c0.301,0.043,0.754,0.086,0.949,0.086l0.164,0.146
	c0,0.102-0.098,0.145-0.34,0.145C211.702,739.655,210.37,739.616,210.26,739.616 M195.261,739.616c-0.102,0-1.453,0.043-2.082,0.043
	c-0.246,0-0.344-0.026-0.344-0.145l0.172-0.146c0.191,0,0.449-0.047,0.641-0.086c0.43-0.073,0.535-0.53,0.621-1.16
	c0.105-0.891,0.105-2.551,0.105-4.573v-3.71c0-3.293,0-3.883-0.059-4.552c-0.027-0.711-0.238-1.086-0.699-1.19
	c-0.254-0.047-0.535-0.078-0.68-0.078l-0.168-0.129c0-0.129,0.117-0.18,0.344-0.18c0.695,0,2.043,0.082,2.148,0.082
	c0.102,0,1.449-0.082,2.074-0.082c0.25,0,0.344,0.051,0.344,0.18l-0.156,0.125c-0.152,0-0.266,0.031-0.535,0.055
	c-0.57,0.125-0.746,0.48-0.801,1.215c-0.039,0.668-0.039,1.259-0.039,4.552v3.71c0,2.022,0,3.684,0.102,4.573
	c0.074,0.63,0.211,1.086,0.848,1.16c0.273,0.043,0.754,0.086,0.961,0.086l0.16,0.146c0,0.102-0.113,0.145-0.344,0.145
	C196.706,739.655,195.362,739.616,195.261,739.616 M172.855,739.655c-1.199,0-1.734-0.082-2.301-0.379
	c-0.906-0.492-1.648-1.535-2.863-3.125c-0.891-1.137-1.895-2.578-2.336-3.104l-0.262-0.121l-2.625-0.07l-0.152,0.191v0.496
	c0,2.022,0,3.684,0.094,4.573c0.078,0.629,0.184,1.086,0.84,1.16c0.301,0.043,0.758,0.086,0.961,0.086l0.176,0.146
	c0,0.102-0.113,0.145-0.352,0.145c-1.176,0-2.52-0.043-2.617-0.043c-0.016,0-1.379,0.043-2.004,0.043
	c-0.219,0-0.34-0.027-0.34-0.145l0.164-0.146c0.207,0,0.445-0.047,0.645-0.086c0.422-0.074,0.527-0.531,0.605-1.16
	c0.125-0.891,0.125-2.551,0.125-4.573v-3.711c0-3.293,0-3.883-0.055-4.551c-0.031-0.711-0.203-1.047-0.91-1.215
	c-0.164-0.022-0.523-0.055-0.73-0.055l-0.164-0.125c0-0.129,0.105-0.18,0.34-0.18c0.949,0,2.308,0.081,2.41,0.081
	c0.242,0,1.855-0.081,2.504-0.081c1.344,0,2.785,0.141,3.914,0.944c0.527,0.375,1.465,1.402,1.465,2.853
	c0,1.551-0.656,3.136-2.57,4.882c1.734,2.211,3.184,4.078,4.422,5.395c1.145,1.215,2.047,1.449,2.59,1.508
	c0.422,0.074,0.715,0.074,0.848,0.074l0.176,0.146c0,0.117-0.121,0.145-0.492,0.145h-1.504v0.003H172.855L172.855,739.655z
	 M162.492,724.52l-0.172,0.25v6.914l0.152,0.229c0.324,0.199,1.292,0.337,2.222,0.337c0.52,0,1.129-0.056,1.625-0.384
	c0.734-0.52,1.277-1.672,1.277-3.257c0-2.625-1.391-4.219-3.684-4.219C163.269,724.391,162.719,724.452,162.492,724.52
	 M114.704,739.616c-0.121,0-1.457,0.043-2.082,0.043c-0.25,0-0.344-0.026-0.344-0.145l0.152-0.146c0.211,0,0.469-0.047,0.664-0.086
	c0.41-0.073,0.527-0.53,0.598-1.16c0.113-0.891,0.113-2.551,0.113-4.573v-3.71c0-3.293,0-3.883-0.031-4.552
	c-0.055-0.711-0.27-1.086-0.723-1.19c-0.242-0.047-0.512-0.078-0.68-0.078l-0.172-0.125c0-0.129,0.129-0.18,0.355-0.18
	c0.699,0,2.031,0.082,2.152,0.082c0.109,0,1.449-0.082,2.074-0.082c0.254,0,0.348,0.051,0.348,0.18l-0.156,0.125
	c-0.156,0-0.285,0.031-0.535,0.055c-0.582,0.125-0.734,0.48-0.809,1.215c-0.039,0.668-0.039,1.259-0.039,4.552v3.71
	c0,2.022,0,3.684,0.113,4.574c0.062,0.629,0.203,1.086,0.844,1.159c0.301,0.043,0.758,0.086,0.961,0.086l0.164,0.146
	c0,0.102-0.113,0.145-0.367,0.145C116.153,739.655,114.817,739.616,114.704,739.616 M33.183,739.616
	c-0.105,0-1.449,0.043-2.082,0.043c-0.254,0-0.336-0.026-0.336-0.145l0.16-0.146c0.184,0,0.453-0.047,0.648-0.086
	c0.422-0.078,0.535-0.535,0.605-1.164c0.121-0.891,0.121-2.551,0.121-4.573v-2.207l-0.129-0.138h-9.035l-0.141,0.138v2.203
	c0,2.022,0,3.684,0.117,4.573c0.066,0.633,0.184,1.09,0.832,1.164c0.301,0.043,0.77,0.086,0.953,0.086l0.172,0.146
	c0,0.102-0.098,0.145-0.352,0.145c-1.164,0-2.512-0.043-2.621-0.043c-0.109,0-1.445,0.043-2.066,0.043
	c-0.234,0-0.352-0.026-0.352-0.145l0.164-0.146c0.195,0,0.453-0.047,0.652-0.086c0.41-0.074,0.539-0.531,0.613-1.16
	c0.102-0.891,0.102-2.555,0.102-4.573v-3.71c0-3.293,0-3.884-0.031-4.552c-0.039-0.711-0.227-1.047-0.922-1.215
	c-0.176-0.022-0.531-0.055-0.719-0.055l-0.184-0.125c0-0.129,0.113-0.18,0.344-0.18c0.957,0,2.289,0.082,2.398,0.082
	c0.109,0,1.457-0.082,2.102-0.082c0.246,0,0.336,0.051,0.336,0.18l-0.168,0.125c-0.148,0-0.262,0.031-0.531,0.055
	c-0.59,0.125-0.742,0.48-0.785,1.215c-0.055,0.668-0.055,1.259-0.055,4.552v0.433l0.141,0.121h9.035l0.129-0.121v-0.433
	c0-3.293,0-3.884-0.043-4.552c-0.047-0.711-0.227-1.047-0.914-1.215c-0.188-0.022-0.551-0.055-0.734-0.055l-0.172-0.125
	c0-0.129,0.109-0.18,0.344-0.18c0.957,0,2.297,0.082,2.402,0.082c0.121,0,1.461-0.082,2.082-0.082c0.25,0,0.348,0.051,0.348,0.18
	l-0.164,0.125c-0.16,0-0.277,0.031-0.543,0.055c-0.57,0.125-0.734,0.48-0.781,1.215c-0.051,0.668-0.051,1.259-0.051,4.552v3.71
	c0,2.022,0,3.684,0.109,4.573c0.078,0.629,0.188,1.086,0.848,1.16c0.293,0.039,0.766,0.086,0.945,0.086l0.156,0.146
	c0,0.102-0.09,0.145-0.332,0.145C34.64,739.655,33.3,739.616,33.183,739.616 M7.266,739.616c-0.125,0-1.457,0.043-2.098,0.043
	c-0.238,0-0.328-0.026-0.328-0.145L5,739.366c0.199,0,0.445-0.047,0.645-0.086c0.426-0.074,0.527-0.53,0.621-1.16
	c0.098-0.891,0.098-2.551,0.098-4.573v-8.926l-3.156,0.039c-1.328,0.039-1.828,0.185-2.172,0.688
	c-0.23,0.358-0.297,0.508-0.355,0.647c-0.059,0.164-0.125,0.211-0.211,0.211l-0.109-0.184c0-0.219,0.418-2.031,0.461-2.203
	l0.219-0.387c0.16,0,0.359,0.211,0.93,0.242c0.621,0.074,1.438,0.117,1.688,0.117h7.992c1.363,0,1.945-0.234,2.098-0.234
	l0.113,0.258c0,0.633-0.066,2.098-0.066,2.336c0,0.191-0.062,0.242-0.141,0.242c-0.102,0-0.148-0.039-0.176-0.336l-0.02-0.215
	c-0.086-0.652-0.566-1.148-2.625-1.188l-2.683-0.039v8.926c0,2.022,0,3.684,0.109,4.573c0.066,0.629,0.199,1.086,0.836,1.16
	c0.301,0.043,0.789,0.09,0.949,0.09l0.168,0.146c0,0.102-0.105,0.145-0.332,0.145C8.711,739.655,7.375,739.616,7.266,739.616"/>
</svg>
