<?xml version="1.0" encoding="utf-8"?>
<!-- Generator: Adobe Illustrator 16.0.0, SVG Export Plug-In . SVG Version: 6.00 Build 0)  -->
<!DOCTYPE svg PUBLIC "-//W3C//DTD SVG 1.1//EN" "http://www.w3.org/Graphics/SVG/1.1/DTD/svg11.dtd">
<svg version="1.1" id="Layer_1" xmlns="http://www.w3.org/2000/svg" xmlns:xlink="http://www.w3.org/1999/xlink" x="0px" y="0px" viewBox="0 820.94 612 242.06" xml:space="preserve">
<style type="text/css">
#logo path {
	opacity: .75;
	fill:white;	
}
</style>
<g id="logo">
	<path d="M146.149,898.581v-54.805l0,0h18.269v54.805H146.149z M141.582,843.777L141.582,843.777
		h-18.269v54.805h18.269V843.777z M146.149,903.15v82.208H18.269V843.777l0,0H0v159.85h164.418V903.15H146.149z M141.582,980.791
		V903.15h-18.269v59.373H41.104V843.776H22.836l0,0v137.015H141.582L141.582,980.791z"/>
	<path d="M146.149,880.312h114.179v18.269H146.149V880.312z M141.582,880.312h-18.269v18.269
		h18.269V880.312z M283.164,898.581v-18.269h-18.269v18.269H283.164z M141.582,903.15h-18.269v18.268h18.269V903.15z
		 M283.164,903.15h-22.836h-54.806v137.015h18.269V921.418h59.373V903.15z M146.149,903.15v18.268h36.537v118.747h18.269V903.15
		H146.149z"/>
	<path d="M383.642,980.791H242.06v-18.27h141.582V980.791z M383.642,903.15H283.164h-22.836
		H242.06v18.268h123.313v18.27H242.06v18.27h141.582V903.15z M388.209,898.581L388.209,898.581v59.374h18.27v-77.643H283.164v-18.27
		h123.312v-18.268h-141.58v54.805h18.269L388.209,898.581L388.209,898.581z M406.478,980.791v-18.27h-18.269v18.27H406.478z
		 M260.328,898.581v-59.373l0,0h146.147V820.94H242.06v77.641H260.328z"/>
	<path d="M388.209,1040.164h77.642v-59.373v-18.27h-77.642V1040.164z M406.478,980.791h41.104
		v41.104h-41.104V980.791z M470.418,939.686h18.27V1063H365.373V962.523h18.269v82.208h86.776v-63.939v-22.836V939.686z
		 M383.642,957.955h-18.269v-18.271h18.269V957.955z M465.851,939.686v18.271h-77.642v-18.271H465.851z"/>
	<path d="M589.164,921.418v59.374h-18.271v-41.104h-82.209v41.104h-18.269v-22.836v-36.538
		H589.164z M470.418,916.851v-73.072h118.746v73.072H470.418z M488.688,898.582h82.209v-36.537h-82.209V898.582z M447.582,980.791
		h18.269v-18.27h-18.269V980.791z M447.582,820.94v137.015h18.269V839.209l0,0h127.883l0,0v141.583H612V820.94H447.582z"/>
</g>
</svg>
